<svg xmlns="http://www.w3.org/2000/svg" viewBox="0 0 212.01 238.28"><path d="M108.086 238.106c-.083-.051-.637-.082-1.23-.069-.872.019-1.195-.055-1.682-.385-.331-.225-.73-.409-.886-.409-.156 0-.563-.23-.904-.512-.406-.334-.743-.48-.973-.42-.429.113-1.837-.347-2.49-.812-.264-.187-.558-.34-.655-.34-.097 0-.398-.111-.668-.247s-1.078-.418-1.795-.627c-.716-.21-1.498-.46-1.737-.558-.609-.248-1.49-.469-2.606-.653a69.445 69.445 0 01-1.824-.33c-.477-.095-1.985-.228-3.35-.294l-2.481-.122-.98.496c-.798.404-1.29.516-2.644.6-.914.057-1.819.187-2.01.289-.658.35-6.566.607-7.053.306-.122-.076-.468-.154-.768-.174a3.33 3.33 0 01-1.087-.317c-.298-.154-.636-.28-.75-.28-.32 0-1.64-.883-1.82-1.218l-.657-1.221c-.431-.802-.48-1.038-.38-1.804.064-.485.319-1.335.567-1.89.627-1.4.45-1.562-1.742-1.608-.895-.019-1.777-.111-1.96-.206-.182-.094-.738-.223-1.233-.286-1.522-.194-3.195-1.565-4.884-4.004l-.574-.829-.816.122c-.449.067-.908.197-1.02.289-.232.19-1.94-.07-3.18-.484-.97-.324-1.697-.2-2.657.454-.895.61-2.56 2.336-2.552 2.645.008.305.671 1.066 1.247 1.433.387.246 1.176 1.258 1.918 2.46.195.315-.774 1.142-1.642 1.401-.997.299-2.943.289-3.65-.019-.877-.38-2.727-.81-3.752-.873-.59-.036-.996-.156-1.129-.334-.29-.39-1.807-.638-3.135-.514-.662.062-1.345.025-1.677-.09-.308-.108-.637-.148-.732-.09-.265.164-2.557.221-2.652.066-.047-.075-.37-.19-.718-.255s-1.147-.387-1.775-.715c-.629-.328-1.274-.596-1.433-.596-.437 0-1.458-.464-1.723-.783-.129-.156-.488-.414-.798-.575-1.686-.874-4.468-3.358-5.43-4.847-.295-.457-.62-.927-.72-1.046-.101-.119-.339-.549-.527-.955-.491-1.06-1.172-2.237-1.528-2.646-.17-.194-.46-.665-.646-1.047-.186-.382-.504-.97-.707-1.308s-.423-.861-.49-1.165c-.066-.304-.282-.886-.48-1.294-.686-1.421-1.006-2.258-1.007-2.632 0-.207-.187-.609-.415-.893l-.413-.516-1.106.253c-1.636.375-2.606.305-3.742-.27-.536-.272-1.012-.635-1.057-.808s-.159-.314-.253-.314c-.093 0-.823-.684-1.621-1.52-1.098-1.15-1.567-1.795-1.925-2.649-.261-.62-.656-1.401-.877-1.734s-.403-.79-.403-1.016c0-.226-.106-.657-.235-.958-.304-.71-.634-2.083-.634-2.641 0-.24-.109-.611-.242-.823-.202-.322-.558-4.076-.49-5.162.176-2.763.813-6.242 1.257-6.861.069-.096.176-.46.239-.808.063-.349.23-.73.37-.847.14-.116.256-.35.256-.52s.256-.69.569-1.155c1.073-1.594 1.151-2.015 1.114-5.98-.023-2.497.028-3.652.168-3.823.11-.134.252-.634.315-1.112.062-.478.217-1.181.345-1.564.386-1.16.749-2.401.868-2.975.062-.298.305-.802.539-1.12.233-.316.425-.764.425-.994 0-.231.232-.712.515-1.07.284-.358.708-1.035.944-1.504s.63-1.043.877-1.275c.247-.231.655-.773.907-1.202s.7-1.048.996-1.374c1.127-1.242 4.03-4.088 4.447-4.359.238-.155.63-.449.868-.653 1.793-1.53 3.024-2.495 3.177-2.495.1 0 .305-.116.457-.256.778-.725 1.562-1.29 2.186-1.577.382-.175.968-.484 1.303-.687.334-.202.881-.47 1.216-.595.334-.125.939-.374 1.344-.554.405-.18.852-.327.993-.327.141 0 .513-.112.827-.25.314-.138 1.04-.377 1.613-.532.573-.155 1.277-.41 1.563-.565.287-.156 1.069-.342 1.737-.414 2.036-.218 5.191-.65 5.56-.762.19-.058.855-.14 1.476-.181a54.576 54.576 0 002.538-.253c3.244-.406 7.877-.528 10.403-.272 2.065.208 4.009.138 4.752-.173.993-.415 2.762-.767 3.853-.767h1.026l.44-.912c.24-.502.514-1.03.607-1.173.093-.143.447-.886.787-1.65.61-1.374.88-1.93 1.266-2.606.11-.19.343-.66.52-1.042s.425-.89.554-1.13c.337-.626.494-.937 1.416-2.808.456-.923.938-1.744 1.073-1.824.135-.08.345-.34.468-.579.382-.748 2.633-2.78 3.08-2.78.224 0 .893-.205 1.487-.458.736-.312 1.579-.5 2.644-.59.86-.074 2.384-.263 3.388-.422 1.494-.236 4.122-.455 5.385-.449 1.87.01 6.269.195 6.601.278 1.213.303 2.535.46 4.343.513 2.067.061 4.278.43 5.146.86.474.233 1.883.533 5.016 1.068 2.71.462 7.683.893 11.78 1.021.878.027 2.534.123 3.681.212 1.147.09 3.13.146 4.406.126 2.053-.033 2.378-.079 2.816-.403.272-.2.673-.366.892-.366.774 0 4.404-.675 5.175-.96.43-.16 1.486-.331 2.345-.381 1.486-.086 1.607-.066 2.432.408 1.302.748 1.807.634 2.635-.596.367-.544.742-1.043.834-1.11.263-.188.536.138.79.943.127.408.296.816.375.906.08.091.144.38.144.641s.066.518.147.568c.166.102 1.086 2.855 1.399 4.185.112.478.437 1.433.721 2.122.284.69.564 1.599.622 2.02.1.724.066.805-.589 1.44-.381.37-.967.906-1.3 1.193-.334.287-1.024 1.03-1.533 1.65a55.011 55.011 0 01-1.767 2.039c-.463.5-.936 1.125-1.052 1.39-.343.782-.84 1.435-1.094 1.435-.13 0-.398-.371-.597-.825-1.395-3.19-1.658-3.296-3.038-1.216-.522.788-1.22 1.746-1.552 2.128-.332.382-.848 1.203-1.148 1.824a23.66 23.66 0 01-1.062 1.947c-.29.458-.493.99-.46 1.213.034.246.563.804 1.407 1.484 2.008 1.619 1.84 1.655 5.743-1.213.488-.358.978-.651 1.088-.651.11 0 .308-.13.439-.288.442-.533 1.282-.758 2.392-.642.938.098 1.143.197 2.008.968.578.515.963 1 .963 1.216 0 .374.946 2.041 1.282 2.26.391.253 2.796.094 3.842-.254.574-.191 1.355-.343 1.738-.337.382.01 1.42-.106 2.307-.25.887-.142 2.295-.241 3.127-.218.833.023 2.76-.046 4.283-.153 2.494-.175 4.976-.086 6.004.215.143.042 1.013.118 1.932.168.919.05 1.857.19 2.084.31 2.293 1.214 3.803 3.245 3.53 4.75-.323 1.785-2.022 3.793-4.741 5.604-.826.55-1.953 1.225-2.505 1.5-.552.274-1.086.598-1.187.72-.303.366-.003.9.621 1.106.99.326 4.123 2.073 5.092 2.838.873.69 1.45 1.066 3.548 2.314 1.013.603 2.031 1.601 2.453 2.406.15.287.372.705.492.93.184.344.165.504-.122 1.04-.342.635-1.84 1.765-2.342 1.765-.267 0-.54.132-2.468 1.19-.547.301-1.175.547-1.394.547s-.58.127-.803.283c-.834.584-6.018.738-10.455.31-1.57-.151-3.246-.274-3.724-.272-1.654.01-4.872.182-6.688.367-1.003.102-2.371.22-3.04.264-1.878.12-2.312.233-2.439.634-.136.427.454 1.11 1.398 1.617.561.301.719.314 1.528.122a30.3 30.3 0 011.858-.366 55.93 55.93 0 001.82-.325c.476-.095.984-.111 1.13-.037.145.074.694.178 1.22.23.995.1 3.099 1.056 4.248 1.933.326.248.64.452.698.452.058 0 .614.237 1.234.527 1.057.494 1.192.517 2.121.353.546-.096 1.5-.215 2.122-.264 2.156-.17 2.851-.387 4.256-1.323 1.501-1.002 4.3-2.239 5.075-2.244.53 0 2.98-.817 3.519-1.168.241-.157.888-.714 1.438-1.237 1.117-1.063 1.174-1.287.72-2.812-.219-.74-.237-1.068-.087-1.57.18-.6.26-.655 1.491-1.02a15.132 15.132 0 012.622-.486c.819-.062 1.353-.183 1.405-.318.046-.12-.221-.756-.594-1.413-.372-.657-.768-1.458-.88-1.78-.275-.788-.245-2.374.061-3.225.138-.382.252-.853.253-1.047.006-.85 1.045-1.626 2.198-1.645 1.913-.031 2.476 0 2.91.166.355.135.59.12.945-.063.397-.206.574-.567 1.127-2.302.863-2.705 1.716-4.745 1.986-4.747.12 0 .218-.12.218-.263 0-.31.07-.314 1.549-.081 1.403.22 3.14.7 3.14.867 0 .068.305.324.677.57 1.515 1.003 2.18 3.129 2.378 7.59.085 1.928.207 2.93.432 3.531.337.904 1.845 3.244 2.09 3.244.258 0 .709.835.77 1.428.034.313.143.99.245 1.505.226 1.15.236 2.184.024 2.585-.087.166-.313.653-.502 1.083-.427.975-.864 1.375-2.003 1.833-.565.227-.896.464-.896.643 0 .156.448.746.996 1.313.917.948 2.036 2.373 2.787 3.548.167.261.543 1.136.835 1.943.292.808.643 1.561.78 1.674.136.114.247.422.247.685 0 .263.128.781.283 1.151.435 1.036.93 2.773 1.28 4.495.175.86.407 1.876.516 2.258.257.902.52 4.118.354 4.343a.908.908 0 00-.135.434c-.018.62-.26 2.1-.554 3.388l-.531 2.345c-.119.525-.3 1.112-.401 1.303a1.44 1.44 0 00-.141.721c.025.206-.04.427-.142.49-.102.063-.3.364-.438.668a13.267 13.267 0 01-2.001 3.073c-1.322 1.504-2.422 2.604-2.605 2.604-.096 0-.175.065-.175.145 0 .179-1.383 1.076-2.432 1.578-.43.205-1.29.49-1.91.633-2.153.496-2.49.693-3.322 1.955-.418.635-.965 1.39-1.213 1.68-.83.961-1.395 2.003-1.281 2.36.163.514.944 1.276 1.829 1.784l.79.454.6-.412c.329-.227.793-.734 1.03-1.126.262-.431.562-.712.761-.712.484 0 2.716 1.942 2.716 2.364 0 .18-.558.92-2.645 3.506-.766.947-1.39 1.908-1.696 2.61-.096.22-.578.794-1.07 1.273-.673.656-.984.846-1.259.772a3.276 3.276 0 00-.675-.1c-.17 0-.36-.14-.421-.306-.062-.168-.16-.343-.218-.391-.058-.048-.279-.313-.49-.588-.432-.562-.483-1.06-.166-1.604.905-1.548.994-1.789.823-2.237-.094-.248-.387-.546-.65-.662-.773-.342-1.956-1.153-1.956-1.342 0-.31-.934.03-1.476.535-.712.664-3.093 2.238-4.256 2.814-1.892.936-2.251 1.66-.954 1.92 2.401.48 2.6.55 2.821 1.016.12.253.173.583.115.733-.164.427-1.651 1.185-2.103 1.072-.285-.072-.366-.034-.3.14.074.192-.265.25-1.698.29-4.224.117-10.242 0-13.082-.25a37.184 37.184 0 00-2.432-.103c-.764-.01-1.663-.097-1.998-.204-.583-.185-3.34-1.3-4.43-1.792-.286-.13-.99-.41-1.563-.622-.573-.214-1.16-.486-1.303-.606-.143-.12-.612-.357-1.042-.526-1.066-.42-2.55-1.56-2.674-2.056-.063-.25-.278-.45-.559-.521-.541-.136-1.979-1.296-1.979-1.598 0-.115-.259-.55-.576-.965-.639-.837-1.757-2.693-1.928-3.2-.06-.18-.3-.465-.53-.633-.522-.378-1.03-.195-2.163.781-.422.364-.969.704-1.216.756a4.105 4.105 0 00-.912.344c-.858.465-1.928.494-3.256.091-.677-.205-1.231-.44-1.231-.52 0-.082-.215-.196-.478-.256-.484-.11-.952-.678-2.947-3.572-.874-1.267-1.406-1.74-1.964-1.746-.145 0-.71.33-1.254.736-.544.406-1.364.93-1.82 1.166-.935.481-1.482.859-2.536 1.751-.4.339-.922.75-1.161.913-1.417.968-2.283 1.512-2.409 1.512-.079 0-.283.155-.454.344-.417.46-2.021 1.068-3.304 1.251-4.436.635-4.855.577-5.716-.788-.527-.836-1.2-2.892-1.4-4.281-.304-2.1-.51-2.195-2.559-1.188-.889.438-1.89.898-2.225 1.024s-1.114.532-1.733.904c-.671.403-1.512.743-2.084.843-1.014.176-1.104.207-2.61.889-1.453.657-3.879 1.158-4.075.84-.169-.273-.442-.054-.442.356 0 .191-.058.312-.13.268-.072-.043-.557-.01-1.078.072-.774.124-1.003.1-1.255-.128-.284-.257-.318-.256-.418 0-.143.372-.23.364-1.933-.167-1.642-.511-1.936-.793-2.789-2.676-1.049-2.315-1.2-3.414-1.32-9.653-.04-2.082-.14-3.454-.268-3.693-.112-.21-.186-.478-.164-.596.073-.395-.494-2.485-.883-3.256-2.368-4.684-4.885-7.251-8.002-8.161-2.085-.61-2.82-.764-3.582-.754-1.233.016-3.293 1.36-3.827 2.497-.578 1.233-.79 1.806-.882 2.388-.055.354-.173.69-.262.748-.22.145-.273 2.016-.08 2.757.088.332.18 1.348.205 2.258.049 1.762.338 3.58.706 4.434.123.287.346.998.496 1.581.15.583.402 1.365.56 1.737.156.373.389 1.12.516 1.66s.427 1.27.665 1.621c.317.467.406.774.332 1.145-.06.293-.028.508.074.508.227 0 .783 1.167.686 1.44-.04.116.068.414.243.663.174.249.409.799.522 1.223l.206.77-.824.895c-.47.51-1.037.941-1.317 1.003-.271.06-.586.22-.7.358-.114.137-.388.249-.61.249s-.45.078-.51.174c-.059.096-.298.173-.531.173s-.424.068-.424.152c0 .083-.32.203-.712.265-1.881.301-2.46 1.017-2.679 3.318-.112 1.18-.1 1.23.378 1.676.629.586 1.712 1.16 2.454 1.298.728.137 3.717-.393 4.652-.824.389-.18.953-.326 1.254-.326.5 0 1.696-.32 2.557-.686.999-.424 1.474-.551 1.65-.443.108.066.328 0 .489-.136.16-.141.723-.302 1.248-.357a381.62 381.62 0 002.595-.287c2.025-.23 4.771.128 6.824.89.737.274 1.428.498 1.536.498.107 0 .394.157.637.348s.556.347.697.347c.329 0 2.43 1 2.567 1.222.057.092.269.168.47.168s.92.262 1.597.582c.676.32 1.543.64 1.925.71.382.072.89.23 1.13.355.591.307 2.039.625 3.252.715.552.041 1.55.152 2.22.247 1.265.178 1.582.14 4.62-.557 1.334-.306 1.619-.447 2.692-1.329.66-.542 1.89-1.65 2.733-2.462 1.833-1.763 3.14-2.682 4.305-3.028.474-.14 1.094-.422 1.38-.624.284-.203.614-.335.732-.293.118.042.488-.026.822-.151.335-.126 1.066-.31 1.626-.408 1.28-.226 2.846-1.24 3.287-2.13.171-.345.34-1.157.38-1.815.078-1.361.207-1.799.53-1.799.24 0 .952 1.319.952 1.765 0 .147.164.414.364.595.634.575.68.83.346 1.914-.82 2.657-1.548 3.648-3.792 5.159-1.119.753-2.322 1.277-4.04 1.761-.916.258-2.525.926-3.084 1.28-.792.502-.393 1.14 1.045 1.67.455.168.912.464 1.016.66.243.453-.003 1.023-.561 1.3-1.268.63-2.835 1.156-4.062 1.365-.764.13-2.054.362-2.866.514-3.578.673-4.119.76-4.734.77-.358.01-.652-.05-.652-.122s-.195-.13-.434-.13-.434.048-.434.106c0 .129-2.923.106-3.136-.025zm75.749-4.945c0-.143-.03-.26-.068-.26s-.114.117-.169.26-.024.26.069.26c.092 0 .168-.117.168-.26zm-13.376-.618c0-.102-.078-.136-.174-.077-.095.059-.173.142-.173.184 0 .042.078.077.173.077.096 0 .174-.083.174-.184zm.075-2.68c1.072-.024 2.334-.127 2.804-.231.47-.105 1.321-.28 1.89-.392.568-.11 1.154-.261 1.302-.334.148-.073.582-.225.964-.338 1.542-.456 4.426-1.786 5.212-2.404 1.925-1.512 4.442-3.841 6.943-6.423 1.04-1.074 1.976-1.954 2.078-1.955.102 0 .368-.268.59-.595.518-.76.34-1.132-.79-1.657-.456-.212-1.026-.554-1.264-.76-.647-.557-1.16-.809-1.652-.809-.242 0-1.368.47-2.504 1.043-1.135.573-2.21 1.042-2.39 1.042-.18 0-.511.13-.738.289-.227.158-.733.357-1.124.442-.392.084-1.025.233-1.407.33-.383.097-1.461.286-2.398.421s-1.775.29-1.865.346c-.089.055-.808.016-1.598-.088-1.321-.174-1.89-.315-2.825-.703a13.75 13.75 0 00-.97-.334c-.929-.283-1.325-.75-1.548-1.826-.11-.529-.272-.961-.36-.961-.09 0-.162-.162-.162-.36 0-1.056-.746-1.277-2.545-.754-.522.151-1.057.233-1.19.183-.132-.051-.464-.03-.737.05-.542.155-1.45.033-3.132-.421-1.047-.283-1.114-.281-1.737.039-2.222 1.141-3.482 1.865-3.862 2.217-.239.222-.719.52-1.066.664-.348.143-.954.55-1.347.905-.67.604-.714.704-.714 1.589 0 .519.114 1.164.254 1.434s.207.537.15.594c-.085.086.55 1.22 1.56 2.781.888 1.375 3.715 3.741 5.465 4.575.74.352 1.653.832 2.03 1.066 1.146.712 3.112 1.246 4.593 1.25.727 0 1.436.074 1.574.161.14.088.324.116.41.062.087-.054 1.035-.115 2.106-.138zm26.005-1.255c.37-.497.672-.986.672-1.085 0-.099.263-.474.585-.832.864-.965 1.205-1.707.978-2.13-.434-.811-1.353-.062-2.345 1.912a17.832 17.832 0 01-.953 1.65c-.841 1.24-.903 1.42-.589 1.734.259.258.309.256.63-.031.193-.172.653-.72 1.022-1.217zm-128.68-.832c-.055-.144-.206-.26-.336-.26-.139 0-.195.107-.137.26.055.143.207.26.337.26.139 0 .195-.107.136-.26zm-31.212-5.191c4.096-.653 6.143-1.428 8.404-3.184 1.167-.906 1.364-1.346.964-2.148-.15-.303-.235-.614-.187-.691.172-.28-.295-.366-.495-.091-.185.252-.305.22-1.161-.314-.526-.328-1.107-.735-1.291-.904a1.424 1.424 0 00-.77-.327c-.239-.01-.465-.113-.504-.229-.099-.297-.388-.262-.388.047 0 .142-.176.294-.391.338l-1.707.356c-.724.151-1.544.271-1.824.267-.28 0-1.201.099-2.048.23-1.019.156-1.81.186-2.336.088-.437-.082-.926-.107-1.086-.056-.814.258-5.044-.611-6.458-1.327-.166-.084-.459-.153-.651-.153s-.35-.078-.35-.174c0-.096-.133-.173-.295-.173s-.808-.345-1.436-.766c-1.088-.73-2.047-1.668-3.554-3.475-.687-.823-1.264-1.254-1.442-1.077-.239.24.468 1.895 1.802 4.218.798 1.39 1.45 2.563 1.45 2.607 0 .124.972 1.48 1.423 1.983.777.872 3.457 2.773 5.134 3.643.932.484 1.77.953 1.86 1.043.091.089.521.167.956.172.435.01 1.103.067 1.485.136.74.134 3.973.109 4.897-.039zm18.034-2.713c-.059-.096-.185-.174-.28-.174-.096 0-.126.078-.067.174.06.096.186.173.281.173.096 0 .126-.078.067-.173zm89.538-3.645a50.733 50.733 0 011.78-.533c.388-.104 1.234-.447 1.88-.761.647-.315 1.36-.62 1.587-.677.66-.168 4.228-2.467 4.285-2.76.124-.634-2.28-.513-4.569.229-2.035.66-2.609.821-2.866.81-.565-.024-3.427.61-4.082.905a13.72 13.72 0 01-1.477.54c-1.178.343-2.171.945-2.171 1.315 0 .496 1.518.933 4.363 1.254.107.012.679-.133 1.27-.322zM22.8 211.953c0-.307-.373-.253-.48.07-.039.113.054.205.205.205a.276.276 0 00.275-.275zm-5.732-.94a.174.174 0 10-.348 0 .174.174 0 00.348 0zm98.948-3.99c.487-.16 1.522-.663 2.3-1.12 1.373-.804 2.076-1.423 4.632-4.077 1.266-1.315 3.276-2.8 3.79-2.8.163 0 .45-.096.637-.213.27-.168.386-.168.555 0 .17.17.29.118.583-.249.26-.326.544-.468.963-.483.327-.012.69-.082.809-.156.118-.074.665-.206 1.216-.293.814-.13 1.091-.266 1.486-.73.266-.313.514-.726.55-.918.036-.19.161-.933.278-1.65.117-.716.312-1.753.433-2.302.513-2.32-.245-2.575-3.255-1.091-1.08.533-2.2 1.121-2.486 1.308-.287.187-.96.571-1.495.854-.535.283-1.2.705-1.476.936-.277.232-.672.474-.879.539-.206.064-.414.22-.463.348-.049.127-.623.528-1.276.892-1.362.758-3.295 2.327-3.766 3.057-.176.273-.425.497-.553.497-.127 0-.28.137-.34.304-.06.167-.436.542-.837.832-.81.587-1.979 2.234-2.966 4.178-.358.704-.723 1.325-.813 1.38-.301.187-.167.927.217 1.195.401.282.636.256 2.156-.24zm49.775-.308c.442-.15.982-.407 1.2-.571.761-.575.013-1.204-1.45-1.22-.4 0-1.04-.12-1.423-.257a5.313 5.313 0 00-1.476-.255c-.98 0-4.409-.458-5.185-.685-.32-.094-.695-.264-.833-.378-.166-.139-.309-.15-.424-.036-.236.236.091 1.06.655 1.651.245.257.533.643.64.857.32.64 1.823 1.074 4.105 1.187 2.396.118 3.131.067 4.19-.293zm-143.81-1.131c.045-.12-.056-.726-.226-1.347-.17-.62-.476-1.91-.681-2.866s-.516-2.245-.69-2.866a95.591 95.591 0 01-1.232-4.864c-.183-.813-.413-1.613-.512-1.779-.098-.166-.179-.384-.179-.486 0-.101-.163-.513-.363-.914-.2-.402-.427-.925-.505-1.164-.079-.24-.385-1.099-.681-1.911-.471-1.294-.668-1.765-1.23-2.953a.649.649 0 00-.41-.317c-.529-.104-.353.807.53 2.735.287.627 1.136 3.841 1.518 5.746l.612 3.04c.211 1.051.53 2.42.707 3.04.178.621.36 1.644.404 2.272.097 1.396.893 3.365 1.71 4.233.588.626 1.081.787 1.228.4zm89.67-1.409c.043-.204.127-1.036.189-1.849.116-1.535.521-3.44.792-3.726.087-.09.157-.386.157-.656 0-.663-.623-.894-2.038-.754-.982.097-1.115.071-1.427-.288-.189-.217-.35-.434-.358-.482a36.61 36.61 0 00-.177-.782c-.104-.451-.095-1.036.027-1.67.287-1.494.102-1.717-1.431-1.717-1.104 0-1.27-.047-1.702-.479-.356-.355-.507-.717-.589-1.406-.106-.901-.084-.967.765-2.225.481-.712.986-1.338 1.123-1.39a.413.413 0 00.248-.356c0-.144.24-.615.531-1.047.966-1.43.328-1.62-2.162-.639-2.414.95-3.4 1.846-4.593 4.174-.722 1.408-1.013 2.158-1.146 2.951-.334 1.996.046 4.856.88 6.617.243.516.953 1.516 1.577 2.223.907 1.027 1.417 1.43 2.546 2.013.777.4 1.842.95 2.367 1.224.526.272 1.23.504 1.564.515.334.011.793.072 1.02.135.226.064.716.087 1.087.051.523-.05.692-.148.75-.437zm-56.902-.443c.255-.162.27-.328.222-2.535-.084-3.874.286-7.948.875-9.64.183-.526.398-1.19.477-1.478.195-.696.711-2.162.936-2.656.323-.709.798-.403 1.482.952.548 1.084 1.09 1.65 1.34 1.4.04-.04.221-.632.4-1.314.18-.683.569-1.73.866-2.33 1.754-3.538 2.249-4.786 2.369-5.967.137-1.35.34-1.75 1.423-2.807 1.596-1.555 3.483-2.767 5.018-3.222a12.051 12.051 0 001.65-.649l1.587-.797c2.445-1.226 7.54-1.629 8.648-.683.143.122.357.252.476.288.118.036.751.595 1.406 1.241.956.944 1.253 1.371 1.514 2.172.366 1.124.698 1.606 1.104 1.601.152 0 .668-.234 1.146-.518.477-.283 1.017-.516 1.198-.518.182 0 .73-.197 1.216-.435.488-.238 1.355-.505 1.928-.595a21.327 21.327 0 001.738-.345c.882-.232 2.08-.239 2.883-.016 1.232.342 3.985 3.54 4.196 4.873.053.34.47 1.18.926 1.867.805 1.213.849 1.249 1.545 1.249.394 0 .79-.066.881-.146.091-.08.634-.243 1.208-.363.573-.119 1.301-.328 1.618-.465.785-.338.685-.844-.316-1.596-1.068-.802-1.06-.796-4.69-4.192-1.767-1.653-3.565-3.245-3.995-3.537a26.669 26.669 0 01-1.564-1.17c-.926-.757-3.932-2.236-5.646-2.778-.668-.212-1.487-.5-1.82-.641-1.227-.523-3.176-.8-5.389-.77-2.286.032-4.9.29-5.368.529-.153.078-.625.195-1.05.26-.426.065-.856.185-.956.266-.192.155-3.975 1.498-4.88 1.732-.787.204-3.367 1.541-4.161 2.158-.383.296-1.016.855-1.407 1.24s-1.016.88-1.39 1.099c-.688.404-1.13.816-3.404 3.18-1.693 1.759-2.864 3.14-3.779 4.456-.415.597-.82 1.085-.901 1.085-.295 0-1.35 1.851-1.636 2.867-.16.573-.39 1.16-.51 1.303-.526.63-1.1 4.026-1.233 7.296-.134 3.276-.13 6.019.008 6.242.042.068.156.617.253 1.22.238 1.481.808 2.061 1.559 1.586zm137.73-.732a19.801 19.801 0 001.562-.447c.404-.139.805-.208.892-.154.087.054.255-.02.373-.161.118-.143.292-.259.387-.259.095 0 .574-.292 1.065-.649.84-.61 1.1-.87 2.212-2.198.254-.304.74-1.415 1.11-2.538.617-1.876.659-2.136.676-4.256.01-1.242-.042-2.493-.117-2.78-.332-1.276-.693-2.179-1.171-2.934-.284-.447-.516-.89-.516-.986 0-.209-1.1-1.204-1.673-1.514-.276-.15-.513-.169-.718-.06-.618.33-2.875 3.57-3.094 4.44-.073.293-.008.502.214.682l.893.73c1.144.935 1.685 2.716 1.144 3.764-.489.947-2.47 2.88-3.082 3.008-.3.062-.732.231-.96.376-.476.302-1.691.205-2.697-.215-.92-.384-1.098-.33-2.046.613-.48.478-.938.868-1.017.868-.078 0-.188.142-.243.316-.055.173-.409.544-.787.825-.377.28-.775.72-.883.976-.312.74.427 1.537 1.802 1.945.59.175 1.347.42 1.682.543.764.284 3.891.324 4.992.064zm-54.016-1.369c.272-.2.642-.732.823-1.181s.591-1.324.911-1.945c.685-1.33 1.906-4.892 2.145-6.254.215-1.231.197-3.54-.036-4.43-.1-.382-.363-1.476-.585-2.432-.221-.955-.595-2.167-.83-2.692s-.693-1.573-1.019-2.328c-.638-1.474-1.081-1.92-2.081-2.089-.845-.142-1.644.42-2.206 1.55a236.74 236.74 0 01-.594 1.189c-.09.176-.17 1.036-.178 1.91-.016 1.517.106 2.302.69 4.458.376 1.393.586 4.63.378 5.846a30.57 30.57 0 00-.242 1.71 7.383 7.383 0 01-.341 1.455c-.15.419-.273.911-.273 1.095 0 .184-.126.579-.28.878-.155.299-.288.92-.295 1.382-.01.727.067.92.586 1.463.328.343.754.694.945.78.544.243 1.936.038 2.482-.365zm33.738-.055c2.516-.08 2.764-.145 5.359-1.394 2.109-1.016 4.171-2.24 5.122-3.041.494-.416 1.077-.84 1.297-.944.22-.104 1.04-1.043 1.824-2.087a213.545 213.545 0 011.989-2.618c.31-.395.62-.835.687-.979.15-.32.9-1.386 1.711-2.432.334-.43.741-1.002.906-1.272.166-.27.634-.926 1.041-1.458.408-.531.886-1.292 1.062-1.69.176-.4.605-1.13.953-1.625.348-.495.632-.949.632-1.008 0-.06.265-.471.588-.914.893-1.222 2.191-3.839 2.191-4.416v-.512l-1.098.118c-.73.078-1.253.047-1.562-.094-.637-.29-1.01.072-1.505 1.459-.555 1.554-1.148 2.414-1.62 2.347-.611-.087-.54-.472.69-3.732.506-1.34.505-1.4-.053-2.578-.798-1.687-1.494-1.644-2.325.145-.273.59-.89 1.737-1.37 2.55-.804 1.362-1.336 2.375-1.822 3.472-.106.238-.505.907-.887 1.486-.865 1.311-1.107 1.722-1.531 2.598-.186.382-.646 1.032-1.023 1.444-.377.411-.806 1.037-.952 1.39s-.493.977-.769 1.388c-1.38 2.052-1.264 2.47.513 1.85 1.156-.402 2.707-1.254 3.158-1.733.503-.536.866-.553.862-.04-.003.406-.388 1.117-1.327 2.448-.3.427-.599.938-.661 1.136-.063.198-.354.53-.647.739-.522.371-.546.372-1.11.069-.39-.21-.733-.271-1.063-.19-.268.067-.878.186-1.356.265-.478.08-1.181.198-1.563.264-.69.118-2.222.634-3.024 1.019-.68.326-6.205.217-7.058-.139-.426-.178-1.08-.272-1.745-.25-.584.018-1.144-.017-1.244-.079s-.758-.15-1.462-.197c-.704-.047-1.7-.164-2.213-.261-.514-.097-1.187-.177-1.496-.177-.309 0-1.02-.146-1.583-.325-.562-.179-1.437-.334-1.945-.345-.509-.01-.995-.063-1.08-.116-.087-.053-.96-.322-1.943-.598a96.928 96.928 0 01-3.16-.95c-.755-.247-1.412-.41-1.46-.362-.048.048-.2-.01-.34-.122-.138-.115-.575-.22-.97-.234-1.018-.036-1.907-.238-2.11-.48-.095-.113-.525-.205-.955-.204-.758 0-.784.019-.837.577-.086.89.314 1.206 2.355 1.854.5.159.954.361 1.009.45.054.087.239.16.41.16.17 0 .576.258.901.573.325.315.728.626.895.69.378.144.392.536.031.896-.311.312-.457.337-.69.119-.091-.085-.79-.367-1.552-.627s-1.574-.62-1.804-.801c-.482-.38-.95-.424-1.189-.112-.091.12-.266.686-.39 1.26-.536 2.503-.732 3.324-.88 3.685-.236.577.206.918 1.19.918.448 0 2.182.199 3.853.441 4.061.59 3.878.561 5.002.78.544.106 1.576.258 2.292.338.717.08 1.616.236 1.998.348.715.21 1.673.428 3.04.692.43.083 1.095.242 1.477.352 1.21.35 5.76.959 6.898.924l3.438-.108zm-56.64-1.903c.015-.253 1.43-1.677 2.667-2.682.68-.553 1.377-1.142 1.548-1.31.17-.167.387-.304.481-.304.095 0 .715-.435 1.379-.968.663-.532 1.466-1.103 1.783-1.268.316-.164.732-.388.923-.497 1.724-.984 6.477-2.722 6.948-2.541.144.055.261.02.261-.076s.157-.135.349-.085c.191.05.445.014.564-.081.12-.094.51-.266.87-.382 1.007-.325 1.243-1.127.539-1.832-.28-.28-1.2-.358-1.35-.114-.05.081-.812.199-1.693.261-1.536.11-2.456.305-3.174.675-1.657.857-2.629 1.48-3.356 2.154-.243.226-.545.41-.67.41a.497.497 0 00-.365.218c-.262.41-2.05 1.465-2.684 1.584-.348.065-.73.234-.846.375-.117.14-.32.256-.452.256-.131 0-.24.078-.24.174 0 .095-.1.173-.223.173-.42 0-3.106 2.564-3.667 3.5-.638 1.064-1.188 2.207-1.508 3.133-.183.529-.18.69.015.925.213.257.32.192 1.066-.64.455-.508.832-.985.836-1.059zm-76.185-.747c.097-.252-.646-2.348-1.197-3.379-.129-.241-.407-.945-.62-1.564s-.64-1.636-.952-2.26a19.727 19.727 0 01-.93-2.26c-.2-.616-.434-1.277-.52-1.468-.084-.192-.278-.621-.43-.956-.26-.572-.257-.621.05-.834.201-.14.291-.354.236-.564-.116-.443-.395-.437-.395.01 0 .6-.326.378-.448-.304a4.217 4.217 0 00-.447-1.201c-.182-.303-.453-.96-.602-1.461-.148-.501-.44-1.163-.646-1.472-1.31-1.953-1.774-2.605-1.89-2.655-.167-.073-1.179-1.568-1.179-1.744 0-.073-.26-.364-.58-.647-.32-.282-.613-.59-.652-.683-.085-.205-2.204-1.646-2.42-1.646-.084 0-.646-.345-1.25-.767-1.34-.937-2.001-1.19-4.158-1.59-1.614-.299-1.747-.299-3.56 0-1.037.173-2.312.46-2.834.64-.523.178-1.062.324-1.199.324-.5 0-2.282.747-2.282.957 0 .119.118.314.26.432.144.12.261.363.261.543 0 .18.059.323.13.32.072 0 .658-.074 1.303-.157.873-.112 1.38-.089 1.982.092.445.135 1.024.244 1.286.244.46 0 2.574.924 4.142 1.81 1.643.93 4.878 3.698 4.883 4.18 0 .098.313.568.693 1.046.38.477.692 1.035.693 1.238 0 .203.107.457.235.563.46.381.078 1.645-.83 2.747-1.089 1.323-1.546 2.232-1.405 2.794.06.242.612.99 1.225 1.661.613.672 1.236 1.461 1.386 1.755.15.293.542.885.872 1.315.331.43.793 1.055 1.028 1.39.981 1.399 1.004 1.415 1.797 1.288.402-.064.731-.175.731-.247 0-.143.7-.437 1.404-.589.788-.17 2.228.496 3.049 1.411.409.456.747.966.751 1.133.004.168.125.304.268.304.144 0 .26.078.26.174 0 .096.157.174.348.174.232 0 .348-.116.348-.348 0-.452.149-.437.781.082.61.5.879.544 1.024.166zm76.02-4.491c.892-.84 2.454-2.01 2.682-2.01.285 0 2.53-1.65 2.53-1.86 0-.223-.536-1.311-.956-1.941-.096-.143-.838-.933-1.65-1.754-2.206-2.232-4.273-3.177-7.006-3.206-1.35-.014-1.645.2-1.645 1.194 0 .62-.496 1.834-.75 1.834-.085 0-.154.092-.154.204 0 .113-.28.612-.624 1.111-.807 1.172-.746 1.512.301 1.662.441.063.988.21 1.214.328.536.276 1.194.879 1.194 1.092 0 .092.131.264.292.381.225.165.294.505.304 1.484l.012 1.27 1.298.663c.843.43 1.422.625 1.65.555.194-.059.782-.513 1.308-1.007zm76.63.522c.388-.163.727-.507 1-1.012.369-.68.392-.835.21-1.39-.23-.694-.828-1.173-1.466-1.173-.652 0-2.197 1.876-2.197 2.669 0 .367 1 1.153 1.468 1.153.22 0 .664-.111.986-.247zm-35.633-4.444c0-.096-.083-.173-.184-.173s-.136.078-.077.173c.06.095.142.174.184.174.042 0 .077-.078.077-.174zm19.94-.731c.797-.405 1.233-.767 1.608-1.332.282-.426.514-.87.514-.985 0-.5-.575-.686-2.035-.66-1.583.03-2.35.26-4.864 1.457-.852.405-1.903.752-2.606.859-.648.099-1.355.22-1.57.268-.464.105-.528.603-.078.603.172 0 .387.074.478.166.21.209 2.108.294 5.116.23 2.247-.048 2.39-.073 3.438-.606zm-11.167-3.176a17.53 17.53 0 011.65-.426c1.102-.211 2.772-.853 3.388-1.301.286-.21.755-.47 1.042-.581.761-.294 2.819-.612 3.242-.502.39.102 2.09-.162 2.664-.414.346-.152 2.24-.545 3.735-.776.43-.066.927-.25 1.104-.406.463-.41.924-1.382 1.214-2.562.139-.563.35-1.264.47-1.558.253-.62.115-1.38-.278-1.53-.347-.133-1.081.246-1.641.847-1.037 1.114-2.655 1.983-4.065 2.182-.949.135-1.708.452-3.732 1.563-.27.148-.906.578-1.412.955-1.228.915-1.101.841-2.778 1.615-1.918.886-2.922 1.137-4.516 1.13-1.22-.01-1.414-.062-3.04-.892-.956-.489-1.91-1.075-2.12-1.305-.211-.229-.915-.59-1.564-.804-1.433-.472-4.101-.784-4.568-.534-.178.096-.558.173-.843.173-.833 0-1.068.163-1.068.74 0 1.368 2.537 3.424 4.864 3.942.526.117 1.268.32 1.65.452.995.342 1.322.37 3.649.317 1.298-.03 2.412-.152 2.953-.325zm-127.73-7.083c-.083-2.228-.172-3.262-.37-4.297-.266-1.389-.37-8.357-.17-11.314.246-3.638.682-4.637 1.786-4.095.18.089.884.229 1.563.311 1.185.144 2.433.387 5.057.986.669.153 1.724.293 2.345.313.62.019 2.106.126 3.3.239 2.617.245 3.85.242 5.513-.015 1.71-.265 1.781-.194 1.69 1.688-.04.806-.179 1.68-.31 1.942s-.326 1.26-.433 2.215l-.395 3.529c-.287 2.57-.072 3.507.804 3.507.272 0 .524-.203.792-.636.35-.567.395-.876.417-2.91.033-3.038.382-4.713 1.585-7.61.236-.568.414-1.35.416-1.824 0-.457.06-.91.13-1.006.365-.5 1.521-1.153 2.416-1.367a19.184 19.184 0 001.794-.53c2.258-.834 3.285-1.014 7.122-1.248 1.969-.12 5.291.16 5.675.478.128.106.671.223 1.207.26.537.037 1.461.262 2.055.5.593.238 1.151.432 1.24.433.087 0 .355.102.594.225.239.124.942.41 1.563.635.621.226 1.207.466 1.303.533.096.067.643.257 1.216.424 1.51.437 2.987 1.067 4.102 1.747.536.328 1.357.76 1.824.96.467.2.983.485 1.146.633.164.148.412.225.552.172.14-.054.67.055 1.18.24.508.187 1.027.3 1.153.252.367-.14.16-.82-.34-1.119-.427-.254-2.317-1.494-3.656-2.4-.317-.214-1.084-.633-1.705-.932-.621-.299-1.325-.678-1.563-.843-.395-.272-2.115-.92-3.909-1.47-.382-.118-.93-.313-1.216-.433-1.622-.681-5.463-1.586-7.21-1.699-1.782-.114-8.585-.08-10.55.053-1.315.09-1.683.06-2.032-.17-1.158-.76-1.582-4-.963-7.36.4-2.172.883-4.012 1.313-4.997.167-.382.335-1.008.373-1.39s.187-.876.33-1.097c.144-.22.44-.963.66-1.65.563-1.764 1.233-3.138 3.105-6.373.138-.239.546-.982.906-1.65 1.002-1.859 1.484-2.49 3.02-3.958 1.514-1.446 1.706-1.556 3.579-2.042.668-.173 1.489-.399 1.823-.502.333-.102.866-.186 1.184-.186s.715-.074.885-.165c1.38-.739 10.487-.87 13.219-.19.43.108.899.196 1.042.197 1.207.01 4.005.436 4.438.677.315.176 1.157.346 2.084.42.856.068 1.907.205 2.337.304.43.099 1.251.25 1.824.336a59.15 59.15 0 011.911.322c2.603.498 6.904.968 9.902 1.082.191.01 2.693-.023 5.559-.067 4.074-.063 5.42-.141 6.167-.358 1.516-.44 3.385-.821 4.034-.821.409 0 .893.207 1.539.657 1.173.82 1.506 1.605 1.195 2.817-.342 1.334-.883 2.585-1.397 3.232-.271.341-.545.79-.608.996-.172.565-1.62 2.875-2.368 3.774-.362.437-.658.874-.658.972 0 .098-.293.486-.651.862a11.154 11.154 0 00-1.173 1.532 87.774 87.774 0 01-.843 1.345c-.309.476-.31.524-.02 1.134l.303.638.323-.4c.178-.22.324-.571.324-.78 0-.231.449-.858 1.138-1.588.999-1.059 4.768-5.866 4.768-6.08 0-.045.274-.47.608-.946.335-.476.608-.908.608-.961 0-.053.165-.319.367-.592.347-.468 1.106-2.12 1.324-2.877.054-.191.256-.572.447-.845.426-.612.708-1.803.72-3.04.008-.893-.025-.962-.773-1.616-.704-.615-.851-.673-1.477-.585-.382.054-1.335.171-2.117.26-.792.09-1.732.32-2.121.519-.384.196-.849.356-1.032.356-.183 0-.617.119-.965.264-.709.296-1.904.319-9.4.177-6.434-.121-7.36-.162-9.554-.418-2.268-.265-9.432-1.353-10.423-1.584-.793-.184-3.037-.63-4.95-.985-1.245-.23-4.664-.61-5.212-.58-.227.013-7.669.196-8.599.212-.19 0-.944-.013-1.673-.035-.73-.022-1.589.039-1.91.136-.323.097-.977.298-1.455.445-.477.148-1.181.318-1.563.38-.382.06-1.108.259-1.613.44-.506.183-1.12.332-1.367.332-.764 0-1.676.656-2.232 1.605-.286.49-.72 1.13-.965 1.423s-.658 1.041-.92 1.663c-.263.62-.566 1.285-.673 1.476l-.86 1.515c-.365.642-.664 1.255-.664 1.363 0 .186-.083.397-.761 1.926-.155.348-.281.725-.281.837 0 .112-.187.53-.415.93s-.465 1.012-.526 1.362c-.061.35-.33 1.053-.598 1.563-.267.51-.618 1.396-.78 1.97-.16.573-.447 1.55-.636 2.17-1.147 3.776-1.946 7.818-2.17 10.986-.123 1.737-.338 2.66-.668 2.868-.115.072-.341.34-.503.594-.475.748-2.567 1.714-3.93 1.814-1.768.13-3.73.246-4.019.236h-1.216c-1.173.012-5.357-.796-6.34-1.224-.191-.083-.899-.181-1.572-.218-.674-.037-1.392-.156-1.596-.265-.204-.11-.522-.2-.706-.2-.336 0-1.578-.443-2.92-1.042a7.064 7.064 0 00-1.522-.44c-.445-.067-.852-.19-.904-.275-.052-.085-.255-.153-.452-.153-.196 0-.64-.149-.988-.33-.348-.183-1.101-.467-1.674-.633-.574-.167-1.333-.448-1.687-.625-.807-.404-1.182-.41-1.171-.02.013.468 1.58 1.653 2.712 2.052 1.628.573 3.51 1.75 3.643 2.279.062.248.054 1.32-.02 2.381-.167 2.433-.168 2.273.064 6.621.107 2.007.277 3.946.378 4.31.1.365.171 1.42.157 2.346-.015.925.065 2.308.177 3.072.113.765.247 1.703.297 2.085.104.783.327 1.146.633 1.03.143-.056.19-.522.153-1.51zm-27.511-4.487c.624-.218.6-.169.378-.754-.22-.58-.522-.563-1.12.061-.732.764-.386 1.086.742.692zm126.73-.344c.393-.104 1.028-.272 1.41-.375.382-.103.994-.385 1.36-.627.756-.501 1.816-.692 3.938-.708 1.428-.01 3.444-.188 6.34-.558.765-.098 1.781-.199 2.259-.226.478-.027 1.888-.142 3.135-.256 1.372-.126 2.434-.148 2.692-.054.235.084.779.17 1.208.188.43.02 1.025.113 1.322.208.296.095 1.156.152 1.91.126.755-.026 2.31.016 3.456.094 2.082.142 4.4.156 4.605.03.06-.038 1.081-.152 2.269-.255 2.322-.2 3.502-.482 4.437-1.06.432-.266.551-.434.445-.623-.264-.473-1.837-1.603-2.983-2.144a33.48 33.48 0 01-1.477-.731c-.19-.11-.855-.472-1.476-.806a40.44 40.44 0 01-1.782-1.015c-1.31-.817-2.339-1.06-4.878-1.152l-2.404-.087-1.505.91c-1.86 1.128-3.638 1.924-4.892 2.193-.525.113-1.135.275-1.354.36a2.62 2.62 0 01-.787.154c-.213 0-.541.104-.73.232-.345.233-1.106.446-2.862.801-.525.107-1.502.31-2.17.454-1.876.401-3.268.564-5.82.68-1.29.06-2.606.148-2.924.197-.482.074-.594.028-.674-.278l-.096-.367-.384.36c-.36.34-.602.363-3.93.392-3.9.033-4.648-.036-4.881-.454-.202-.359-.661-.364-.661-.01 0 .23-.158.255-1 .159-.548-.063-1.272-.18-1.606-.26-.334-.08-1.35-.195-2.258-.257-.908-.062-2.12-.19-2.693-.285a27.643 27.643 0 00-2.085-.244c-.573-.04-1.745-.235-2.605-.432s-1.955-.447-2.432-.555c-.688-.156-3.774-.322-6.06-.327-.38 0-1.15.669-1.15 1.001 0 .126.802.63 1.781 1.12 1.74.87 4.712 1.703 6.124 1.717.518 0 3.188.524 4.516.878.382.101 1.035.22 1.45.265.798.085 1.857.24 4.543.662 3.664.577 6.561.983 7.383 1.033 2.056.127 3.307.104 3.976-.072zm65.772-1.347c.54-.206.798-.412.834-.664.058-.401-.787-2.074-1.507-2.981-.998-1.26-3.632-3.816-4.452-4.322-1.504-.929-3.29-1.782-4.09-1.955-.426-.09-1.201-.287-1.724-.435-.522-.148-1.189-.269-1.48-.269-.293 0-.714-.127-.936-.283-.222-.156-.67-.343-.994-.416-.52-.117-.641-.073-1.018.375-.51.607-.696 1.449-.54 2.453.164 1.046 1.108 1.725 3.166 2.275 1.616.433 2.81 1.11 4.063 2.305.338.323.67.587.74.587.068 0 .664.454 1.325 1.009.66.554 1.92 1.375 2.799 1.824 1.783.91 2.493 1.002 3.814.497zm-176.67-.724a.174.174 0 10-.348 0 .174.174 0 00.348 0zm27.177-2.992c.305-.436.353-1.22.103-1.687-.179-.334-.89-.497-2.786-.637-1.531-.113-2.683-.358-3.61-.768-.967-.428-1.124-.428-1.511 0-.234.258-.287.518-.216 1.049.121.906.36 1.18 1.142 1.307.349.057 1.181.227 1.85.38 1.244.281 3.694.686 4.376.722.214.01.5-.15.652-.366zm62.72-3.7c.574-.236 1.129-.43 1.233-.43.105 0 .34-.166.522-.369.363-.404 1.08-.754 4.042-1.97 1.085-.446 2.336-.995 2.779-1.22 1.159-.59 3.366-1.408 4.975-1.846 2.49-.678 3.469-1.09 3.526-1.483.067-.458-1.474-2.454-2.006-2.598-.559-.152-1.15.036-1.779.564-.3.252-1.263.82-2.141 1.263-.878.442-2.026 1.085-2.551 1.427-.526.343-1.307.808-1.737 1.034-.43.225-.9.499-1.043.608-.143.11-.925.538-1.737.952-1.54.786-2.623 1.426-3.214 1.9-.19.153-.816.465-1.389.695-.912.365-1.325.417-3.316.42-2.33 0-3.272-.172-4.328-.802-.286-.17-.716-.405-.955-.52a8.556 8.556 0 01-.877-.509c-.243-.165-.986-.514-1.65-.776-.664-.262-1.482-.684-1.816-.937-1.631-1.233-5.665-3.5-7.557-4.249-.669-.264-1.607-.732-2.084-1.04-.746-.482-2.063-1.152-3.733-1.903-.238-.106-.92-.487-1.517-.845-.597-.358-1.126-.652-1.176-.652-.05 0-.5-.204-1.002-.454-3.872-1.933-8.788-1.538-8.236.662.186.739.908.916 2.864.704l1.682-.182 1.042.564c.573.31 1.456.81 1.962 1.112.506.301.96.548 1.008.548.048 0 .72.315 1.494.7 1.204.602 1.649.725 3.104.864 1.379.131 1.888.264 2.71.705.558.3 1.17.684 1.361.856.191.171.738.522 1.216.78s1.298.733 1.824 1.055c.525.322 1.14.668 1.365.769.694.31 1.955 1.244 3.459 2.561.79.692 1.61 1.298 1.824 1.346.213.048 1.208.171 2.211.274 1.004.103 2.059.22 2.346.258 5.204.713 5.925.729 7.296.164zm24.235-.956c.567-.165 4.132-.682 5.297-.768.287-.02 1.013-.14 1.615-.265.91-.19 1.136-.309 1.346-.716.286-.553.311-.838.103-1.167-.187-.295-2.824-.474-3.291-.224-.186.099-.836.19-1.445.204-1.471.03-3.841.327-4.06.506-.096.08-.533.197-.97.262-1.059.157-1.196.263-1.318 1.018-.148.91.266 1.328 1.317 1.328.44 0 1.072-.08 1.406-.178zm60.36-1.03c.38-.731.38-5.77.003-6.675-.271-.649-.6-.794-.921-.407-.102.122-.262.845-.357 1.607-.095.761-.252 1.697-.35 2.08a886.36 886.36 0 01-.388 1.52c-.27 1.054-.004 1.619.976 2.064.382.174.712.318.734.32.021 0 .158-.227.304-.508zm-3.423-2.647c.321-.672.859-2.857 1.06-4.31.324-2.337-.433-2.724-2.207-1.129-.756.68-1.015 1.217-1.046 2.166a5.646 5.646 0 01-.31 1.526c-.375.979-.146 1.505.85 1.962.937.43 1.372.373 1.653-.215zM162.43 159c.843-.544 1.777-1.42 1.777-1.668 0-.593-1.522-2.48-2.212-2.742-1.308-.497-6.964-.635-10.99-.267-.717.065-1.365.104-1.441.086-.296-.071-.941-.05-1.773.062-.478.063-1.181.14-1.563.17-.383.03-.89.13-1.13.222-.238.093-1.822.226-3.519.297-1.696.07-3.128.197-3.18.282-.229.37-.94.147-1.212-.38-.373-.72-1.448-2.122-1.77-2.308-.308-.177-1.321.335-2.435 1.23-.783.63-.956 1.216-.478 1.613.143.12.26.315.26.435s.279.431.62.69c.34.26.689.658.775.885.287.754 1.024.753 3.73 0 .573-.16 1.316-.365 1.65-.455.335-.09 1.43-.2 2.432-.245 2.392-.106 5.129-.376 5.974-.589.38-.095 2.337-.142 4.467-.106 3.217.053 3.904.111 4.536.385.41.178 1.075.429 1.478.559.49.157 1.058.573 1.71 1.251.536.56 1.126 1.016 1.31 1.016.185 0 .627-.188.984-.418zm-106.44-2.105c.685-.227.876-.377.954-.748.053-.255.136-.62.185-.811.048-.191.159-.895.246-1.563.298-2.3.647-3.836 1.056-4.645.084-.166.155-.596.158-.955.006-.66.07-.86 1.365-4.27.784-2.064.9-2.886.41-2.92-.576-.038-.828.039-1.867.57-1.2.615-1.297.726-1.3 1.495-.004.651.224 1.116.932 1.897.566.625.52 1.015-.15 1.27-.562.213-1.077-.01-2.436-1.058-.573-.442-1.317-.893-1.653-1.002-1.008-.326-2.617-.373-3.434-.099-.41.137-1.005.25-1.324.25-.79 0-3.094 1.075-3.552 1.657-.51.648-.476.885.31 2.19 1.03 1.707 1.177 3.796.266 3.796-.123 0-.457-.372-.743-.825-.5-.798-.675-1.028-1.906-2.525-1.45-1.764-2.447-2.231-4.899-2.299-1.533-.042-1.951.01-2.608.302-2.428 1.094-2.173.898-3.596 2.77-.42.552-.838 1.05-.929 1.106-.288.178-.178.703.226 1.08.215.2.82.533 1.346.74.525.206 1.033.433 1.13.505s.642.267 1.215.433c.574.166 1.452.5 1.952.743.5.242 1.038.392 1.195.331.157-.06.373-.04.48.042.294.229 1.74.55 2.475.55.606 0 1.42.197 2.237.542.191.081.62.191.955.246.335.055.921.18 1.303.278.382.098 1.047.24 1.477.315.43.075 1.172.226 1.65.334.884.2 2.94.413 4.92.51.688.032 1.418-.054 1.954-.232zm72.788-3.196c.28-.28.508-.577.508-.66 0-.416-3.248-2.95-3.961-3.092-.522-.103-2.236-.613-2.64-.786-2.501-1.066-3.615-2.055-5.468-4.856-.285-.43-.585-.81-.669-.845-.083-.035-.397-.279-.698-.541a7.698 7.698 0 00-1.311-.865 16.154 16.154 0 01-1.616-.987c-.47-.33-1.047-.673-1.283-.763-.236-.09-.587-.43-.78-.758-.478-.81-1.343-1.132-2.637-.983-1.803.207-1.732.738.217 1.611.621.278 1.286.647 1.477.82.191.171.548.36.793.417.757.178 3.058 2.824 4.218 4.848 1.084 1.894 1.149 1.959 2.46 2.477.668.265 1.527.66 1.91.877.382.218 1.348.646 2.148.952 1.871.716 3.532 1.678 4.781 2.772 1.2 1.05 1.782 1.132 2.551.362zm10.217-.795c.584-.43 1.15-.782 1.255-.782.107 0 .723-.352 1.37-.781.646-.43 1.26-.782 1.365-.782.397 0 .692-.763.571-1.477-.16-.944-.616-.988-1.96-.187-.574.342-1.105.622-1.18.622s-.48.272-.9.606c-.42.333-.82.607-.89.608-.07 0-.52.243-1 .538-.694.427-.87.63-.87 1 0 .44.71 1.417 1.03 1.417.08 0 .625-.352 1.21-.782zm-68.213-1.257c.79-.38 1.73-.786 2.089-.902.844-.276 1.1-.668 1.15-1.758.043-.93.276-1.743 1.31-4.559.772-2.105.78-2.387.082-2.8-.439-.26-.724-.296-1.52-.194-.538.07-1.227.15-1.532.18-1.07.106-1.27.24-1.27.857 0 .321.125.68.284.811.814.676 1.127 1.599.95 2.804-.037.258-.72.122-1.017-.203-.167-.183-.695-.85-1.173-1.482-.843-1.117-1.367-1.458-1.915-1.247-.535.205-1.15 2.202-1.72 5.58-.113.67-.301 1.391-.417 1.604-.295.539-.09 1.182.548 1.719.49.412.642.446 1.627.367.783-.063 1.488-.28 2.524-.777zm7.848-4.432c.143-.502.385-1.42.538-2.041.333-1.35.342-1.373 1.37-3.508.447-.925 1.153-2.137 1.57-2.692.416-.555.876-1.297 1.022-1.648.146-.35.487-.772.758-.936.995-.603 2.927-1.907 3.198-2.16.728-.68 1.474-.948 2.68-.965 1.291-.018 2.665-.216 2.952-.425.096-.069.605-.26 1.133-.422.7-.216 1.078-.25 1.404-.126.266.102.544.107.692.014.387-.245 1.028-.187 1.14.104.056.146.425.455.82.687.395.231 1.094.82 1.554 1.308.845.896 1.416 1.237 1.813 1.086.318-.12.266-.537-.13-1.04-.191-.243-.348-.542-.348-.664 0-.266-1.591-1.468-1.944-1.468-.135 0-.507-.192-.826-.427s-.94-.475-1.38-.532c-.44-.057-.97-.173-1.178-.258-.218-.089-.584-.088-.868 0-.27.085-.922.236-1.447.336-2.854.54-3.701.773-4.136 1.135-.257.214-.774.446-1.149.515-.696.128-2.523 1.22-3.922 2.346-.43.346-1.1.843-1.49 1.105-.782.524-1.574 1.3-1.876 1.836-1.464 2.6-1.949 3.607-2.296 4.768-.227.758-.372 1.443-.323 1.523.05.08-.057.719-.236 1.42-.36 1.405-.267 2.04.3 2.04.266 0 .403-.207.605-.912zm4.502-.882c1.438-.665 4.193-2.569 4.472-3.09.51-.953-.36-2.562-1.784-3.296-.894-.46-1.446-.426-1.823.116a18.6 18.6 0 01-.808 1.043c-1.005 1.203-2.202 5.3-1.651 5.65.311.197.18.232 1.594-.423zm-40.01-.04c0-.043-.077-.078-.173-.078-.096 0-.174.083-.174.184 0 .101.079.136.174.077.096-.059.174-.142.174-.184zm83.298-5.43c.382-.338.765-.738.851-.889.086-.15.685-.82 1.332-1.489 1.37-1.415 2.42-2.663 2.42-2.872 0-.08.24-.405.533-.722.293-.316.81-1.043 1.147-1.614.534-.902.604-1.15.534-1.88-.11-1.148-.331-1.316-1.78-1.351-1.409-.034-4.073.286-4.68.562-.298.136-.569.137-.948 0-.347-.12-.567-.125-.637-.013-.058.094-.549.165-1.09.155-1.763-.03-5.661.198-6.174.36-.358.114-.73.08-1.303-.117-.441-.152-1.27-.303-1.844-.336-1.894-.11-3.293-.264-3.893-.427-.325-.09-.642-.13-.704-.092-.062.038-.421-.01-.798-.104-.377-.095-.91-.207-1.185-.249a13.02 13.02 0 01-1.15-.251c-.358-.096-1.157-.161-1.776-.144-.923.025-1.247-.045-1.803-.39-.594-.37-2.076-.78-4.065-1.127a74.22 74.22 0 01-1.798-.353c-1.582-.328-5.701-.75-7.756-.795-.908-.02-1.786-.101-1.95-.18a.746.746 0 00-.609.018c-.17.09-1.168.258-2.219.372s-2.184.24-2.519.28c-.334.04-1.37.103-2.302.141-.931.038-1.87.125-2.084.193-.453.143-1.43.83-2.005 1.41-.218.22-.595.4-.836.4-.796 0-1.734.78-2.287 1.9-.121.245-.485.876-.808 1.401-.756 1.23-1.838 3.44-1.838 3.754 0 .134-.194.646-.431 1.138-.5 1.035-.713 1.974-.48 2.117.088.055.896-.137 1.795-.427 1.917-.617 2.565-.6 4.25.117 1.37.582 1.466.545 2.338-.883.341-.558.734-1.05.874-1.096.482-.155 1.01-.67 2.092-2.04.598-.757 1.172-1.429 1.275-1.492.103-.063.661-.571 1.24-1.129.578-.558 1.32-1.143 1.65-1.301 2.5-1.202 3.32-1.461 5.722-1.81 2.051-.299 5.898-.275 6.914.042 1.085.338 1.98.83 2.405 1.323.204.237.751.56 1.216.717 1.031.35 1.745.978 2.565 2.26l.625.977 2.475-.086c2.81-.097 5.1.122 6.532.626 1.945.684 2.161.63 2.357-.59.162-1.018.513-1.348 1.43-1.348h.754l.003 1.693c.001.932.06 1.785.131 1.895.07.11.437.26.813.33.48.09.924.365 1.477.913.958.952 3.373 2.774 4.091 3.089.665.29 1.05.172 1.911-.591zm-32.398-1.276c.525-.299 1.65-.912 2.498-1.363.85-.451 1.615-.947 1.701-1.102.226-.404-.081-.882-.945-1.47-1.34-.912-2.213-1.14-3.915-1.019-2.239.16-2.987.511-2.987 1.405 0 .368 1.29 3.055 1.742 3.63.468.596.734.584 1.906-.081zm-4.525-.277c-.029-1.158-.875-2.822-1.434-2.822-.457 0-.845.458-.874 1.033-.025.509.09.681.89 1.339.976.802 1.431.946 1.418.45zm51.08-.477c.12-.144.178-.26.13-.26-.048 0-.184.116-.303.26-.12.143-.177.26-.13.26.048 0 .185-.117.303-.26zm-64.709-10.684c-.059-.096-.141-.174-.183-.174-.043 0-.077.078-.077.174 0 .096.083.173.184.173.101 0 .136-.078.076-.173zm10.42 98.584c-.476-.243-1.044-.591-1.262-.775-.495-.415-1.6-2.23-1.6-2.625 0-.16-.707-1.053-1.57-1.983-.865-.93-1.783-2.084-2.042-2.564a360.2 360.2 0 00-.711-1.312c-.411-.751-.924-2.326-1.172-3.596-.532-2.722-.094-7.125.842-8.469.415-.595.739-.605 1.112-.035.238.363.272.72.19 1.983-.056.87-.218 1.77-.372 2.068-.327.632-.344 2.062-.044 3.768.364 2.075 2.154 4.344 4.37 5.54.621.336 1.463.826 1.87 1.09.407.263.946.57 1.197.68.448.199 1.77 1.292 3.235 2.675.901.851.95 1.385.222 2.391-.393.543-.672.74-1.173.83-.36.066-.734.176-.83.245-.096.069-.33.167-.521.218a5.921 5.921 0 00-.611.202c-.145.06-.653-.088-1.13-.33zm120.86-65.054c-.186-.2-.463-.75-.616-1.224-.316-.977-.27-1.18.79-3.47.33-.716.658-1.604.727-1.972.069-.369.27-.994.446-1.39.516-1.158.945-4.99.803-7.178-.066-1.025-.184-1.945-.263-2.045-.079-.1-.196-.988-.262-1.973-.065-.985-.299-2.432-.52-3.214-.686-2.434-.829-3.013-.887-3.617-.03-.322-.096-.78-.145-1.02s-.182-1.137-.296-1.997c-.114-.86-.315-1.9-.447-2.31s-.271-1.23-.31-1.824c-.04-.593-.195-1.364-.344-1.713-.167-.393-.339-1.654-.45-3.3-.098-1.467-.249-3.096-.335-3.622-.086-.527-.117-1.163-.069-1.415.101-.53-.359-2.916-.681-3.53-.367-.7-2.41-2.698-2.758-2.698-.18 0-.424-.16-.544-.357-.242-.395-.856-.704-2.043-1.027-.43-.117-1.054-.33-1.387-.473-.333-.144-1.037-.3-1.564-.346a10.927 10.927 0 01-1.74-.316c-.43-.126-1.504-.275-2.387-.33-.883-.055-1.743-.17-1.91-.257-.81-.415-2.3-1.063-2.445-1.063-.09 0-.25-.104-.356-.232-.106-.128-.514-.338-.908-.468s-.755-.338-.803-.463c-.048-.125-.17-.227-.27-.227-.2 0-.213-.012-1.79-1.514-.978-.93-1.44-1.472-2.463-2.886-.215-.298-.39-.792-.39-1.099 0-.413-.127-.647-.492-.907-.44-.314-.54-.325-.958-.107-.257.133-.877.667-1.377 1.188-.5.52-1.144 1.09-1.432 1.268-.604.372-1.844 1.672-4.775 5.008-.525.598-1.12 1.183-1.322 1.3-.201.118-.495.46-.652.762-.249.477-1.107 1.617-2.634 3.502-.949 1.17-2.838 3.716-3.868 5.211a68.068 68.068 0 01-1.565 2.171c-.4.526-.728 1.043-.729 1.15 0 .106-.16.395-.353.642-.195.247-.67 1.059-1.057 1.804-.386.746-.965 1.824-1.286 2.398-.532.95-1.3 3.054-1.3 3.562 0 .114-.113.453-.25.754-.267.582-1.873 5.23-2.261 6.541-.127.43-.433 1.25-.68 1.824-.247.573-.452 1.199-.456 1.39-.019.921-.548 2.785-.897 3.156-.758.806-1.936.36-1.566-.594.102-.263.274-1.2.383-2.084s.347-2.015.53-2.516c.183-.5.333-1.085.333-1.297 0-.213.157-.784.348-1.269s.347-1.063.347-1.286c0-.395.506-1.839.95-2.71.12-.238.437-1.098.701-1.91s.744-2.036 1.065-2.72c.322-.683.585-1.337.585-1.452 0-.538 2.366-5.03 3.102-5.888a30.625 30.625 0 001.675-2.216c2.021-2.968 3.173-4.565 4.176-5.793.586-.718 1.265-1.617 1.508-1.997.391-.612 1.286-1.489 4.782-4.684 1.487-1.359 1.078-1.936-.738-1.043-.478.235-.965.428-1.083.429-.196 0-1.926.983-2.13 1.209-.138.15-1.728.877-1.92.877-.096 0-.742.377-1.438.837-.695.46-1.69.976-2.21 1.145-.521.169-1.338.528-1.816.798s-1.22.627-1.65.792c-.43.164-1.329.552-1.998.86-.669.31-1.411.619-1.65.688-.239.07-.864.308-1.39.528-.525.22-1.073.447-1.216.505-.143.058-.615.32-1.048.58-2.358 1.424-3.246 1.851-4.131 1.99-.54.085-1.814.561-2.935 1.098-1.09.522-2.114.951-2.275.953-.162 0-.635.159-1.052.348-.416.189-1.003.343-1.304.343s-.796.072-1.1.16c-.498.142-3.972.35-7.284.436-1.464.038-1.986.314-2.502 1.326-.406.796-.746.997-1.136.673-.216-.179-.246-.44-.152-1.317.14-1.302.19-1.264-2.354-1.726-1.58-.287-4.423-1.349-5.024-1.877-.151-.133-.736-.485-1.301-.784-.565-.298-1.112-.612-1.216-.697-.104-.085-.524-.245-.932-.354-.929-.248-2.261-.027-3.571.593-.512.242-1.056.44-1.209.44-.152 0-.321.072-.376.16-.054.088-.614.412-1.243.718-1.078.525-3.283 2.144-3.915 2.874-.157.182-.315.486-.35.676-.097.533-.63.534-.872 0-.165-.361-.16-.817.025-2.14.128-.925.299-2.307.379-3.071.476-4.551.8-7.168.91-7.358.037-.062-.003-.296-.088-.521-.14-.37-.224-.398-.892-.29-1.265.205-4.806.253-4.92.067-.065-.104-.234-.058-.425.115-.272.247-.839.292-3.935.316-1.99.015-4.164-.023-4.833-.084-1.38-.128-4.475-1.126-6.187-1.996-.632-.322-1.234-.585-1.338-.585-.236 0-1.643-.942-1.939-1.298-.33-.397-.752-.322-1.277.226-.369.384-.525.807-.723 1.954-.14.805-.363 2.01-.497 2.68-.256 1.275-.404 2.903-.551 6.065-.09 1.908-.233 2.359-.755 2.36-.156.001-.507.119-.78.261-.274.143-.609.26-.744.26-.348 0-.488-.477-.272-.924.291-.6.706-2.846.81-4.375.068-1.03.371-2.862.732-4.43.142-.62.302-1.988.355-3.04.054-1.08.2-2.114.334-2.38.13-.257.238-.688.238-.956 0-.3.134-.572.347-.705.191-.12.347-.3.347-.4s-.09-.126-.2-.059c-.124.077-.153.048-.077-.077.069-.11.238-.2.377-.2.244 0 2.238 1.255 2.597 1.635.098.104.411.312.695.462.285.15.673.357.865.459 1.714.917 2.943 1.44 3.388 1.44.292 0 .783.104 1.09.232 1.375.574 5.578 1.155 8.898 1.23 1.05.024 2.712.143 3.692.264.98.122 1.898.176 2.04.121.42-.16.292-1.008-.264-1.76-.282-.383-.662-1.008-.844-1.39s-.686-1.038-1.119-1.458l-.788-.762-1.793.113c-2.19.138-1.803.142-3.878-.038-2.13-.185-6.138-1.289-6.918-1.905-.112-.088-.634-.299-1.16-.468-1.98-.637-3.647-1.876-3.647-2.71 0-.346.222-.67.825-1.203.454-.402 1-.812 1.216-.912.215-.1.39-.246.39-.326 0-.08.102-.146.227-.146s.559-.33.965-.732c.78-.771.848-1.248.272-1.888-.136-.15-.247-.37-.247-.486s-.132-.462-.292-.768c-.362-.69-.556-1.659-.747-3.72-.082-.88-.204-1.69-.272-1.799-.067-.109-.137-.561-.155-1.005-.046-1.17-.428-3.455-.738-4.418a12.576 12.576 0 01-.399-1.824 11.067 11.067 0 00-.4-1.774c-.578-1.68-.643-2.072-.581-3.487.066-1.505.572-3.983.813-3.983.075 0 .175.098.224.217.048.12.093.018.1-.226.016-.495.8-2.169 1.239-2.643.156-.169.394-.52.528-.782s.463-.802.729-1.203c.943-1.422 1.924-4.125 2.54-7.002.174-.812.477-1.867.673-2.345.196-.478.4-1.064.45-1.303.115-.526.43-.962 1.65-2.28l.933-1.009-.148-1.178c-.082-.648-.125-1.335-.098-1.526.028-.191.08-.973.114-1.737.085-1.874.279-3.61.426-3.822.066-.096.143-.486.17-.869.026-.382.15-.752.275-.823.289-.165.558-1.4.69-3.172.11-1.479.147-1.762.41-3.127.092-.478.18-1.26.196-1.737.053-1.581.128-2.067.33-2.134.11-.037.2-.239.2-.45 0-.21.155-.69.347-1.064.19-.375.347-.763.347-.862 0-.1.313-.63.695-1.181.382-.55.695-1.048.695-1.106 0-.141 1.081-1.368 1.205-1.368.054 0 .567-.474 1.14-1.054.573-.58 1.45-1.263 1.95-1.519s1.32-.778 1.824-1.16c.943-.715 1.25-.826 1.44-.52.16.26.433.03.319-.269-.06-.156.006-.255.17-.255.146 0 .321-.176.387-.39.182-.588 1.22-2.7 1.483-3.017.268-.323.592-.865.834-1.397.094-.205.253-.425.355-.488.101-.062.184-.235.184-.382 0-.57 1.912-2.674 3.388-3.726 1.14-.814 1.389-.956 1.232-.702-.068.11-.038.2.066.2.104 0 .241-.136.305-.304.183-.479.763-1.002 1.61-1.452.429-.228.93-.55 1.114-.715.183-.165.594-.386.913-.491s.58-.264.58-.352c0-.088.107-.16.239-.16s.335-.116.454-.259.287-.213.376-.158c.089.055.35-.024.582-.176.231-.152.522-.276.646-.276s.522-.158.884-.352c.997-.534 2.046-.85 2.997-.903.471-.026.896-.09.944-.144.168-.188 4.959-.677 5.6-.572.412.067.747.026.913-.112.181-.15.328-.163.479-.04.12.098.666.183 1.215.189.549.006 1.163.099 1.365.207.265.142.42.144.557.007.312-.313 1.131-.225 1.328.142.106.198.3.3.483.252.169-.044.95.07 1.735.253.786.183 1.626.295 1.868.249.241-.046.439-.016.439.066s.684.171 1.52.196c.979.03 1.736.15 2.128.337.334.16.92.277 1.302.26.68-.03 1.433.225 1.694.574.083.11.189.083.29-.074.135-.21.344-.215 1.383-.029.672.12 1.299.172 1.392.115a.194.194 0 01.267.055c.055.088.998.163 2.097.167 1.099.004 2.078.056 2.176.116.098.06 1.251.148 2.562.193 1.311.046 2.658.157 2.992.247.334.09.897.164 1.25.164.352 0 .689.08.748.175.059.096.497.174.974.174s1.096.118 1.377.263c.28.145.882.305 1.337.357 1.05.117 2.131.434 2.131.624 0 .08.266.145.59.145.75 0 3.107 1.186 2.986 1.502-.047.123-.01.271.081.328.092.057.214-.019.272-.168.147-.383.648-.337 1.039.094.182.201.616.512.966.69.349.178.79.522.981.764.19.243.804.779 1.363 1.192 1.043.77 2.667 2.486 2.667 2.818 0 .061.351.468.781.904s.782.884.782.994c0 .11.232.508.516.884s.519.749.521.83c.003.082.224.434.492.782.629.818 1.838 2.87 2.215 3.76.161.382.362.83.446.997.084.166.153.499.153.74 0 .242.071.575.158.741.087.166.251.77.364 1.344.113.573.285 1.238.382 1.477.646 1.597 1.233 11.87.716 12.543-.095.124-.188.577-.206 1.007-.017.43-.112 1.211-.211 1.737-.1.525-.257 1.385-.35 1.91a27.942 27.942 0 01-.355 1.674c-.24.934-.03 1.324.878 1.623.387.128.834.376.993.553.16.176.407.32.549.32.324 0 2.578 2.308 2.734 2.799.063.199.227.491.365.649.73.84 1.105 1.412 1.105 1.69 0 .279.442 1.38.886 2.206.09.17.365.951.61 1.737.244.786.573 1.528.73 1.65.234.183.247.282.072.562-.262.42-.278 1.154-.028 1.308.119.074.14.432.059 1.01a12.2 12.2 0 00-.112 1.589c.016.748-.298 2.182-.722 3.3-.145.383-.267.945-.271 1.25-.004.305-.092.606-.196.67-.103.064-.338.44-.52.836-1.075 2.322-2.646 4.149-5.185 6.028-1.944 1.44-1.978 1.51-1.445 3.03.22.626.293 1.303.264 2.431-.073 2.868-.211 4.553-.415 5.059a8.425 8.425 0 00-.344 1.195c-.503 2.456-.67 3.078-1.062 3.932-.24.525-.535 1.38-.656 1.899a7.562 7.562 0 01-1.405 2.942c-.258.334-.517.823-.576 1.085-.059.263-.152.66-.208.88-.171.685 2.342 4.118 3.592 4.907.358.225 1.138.846 1.735 1.378 2.04 1.821 4.748 2.695 8.585 2.772 1.67.033 2.397.207 3.9.933.521.252 1.12.435 1.332.408.261-.034.42.064.497.307.063.197.224.358.359.358.134 0 .372.196.529.435.156.238.383.434.503.434s.496.293.835.651l1.354 1.433c.96 1.02 2.59 3.189 2.59 3.447 0 .11.152.201.337.201.43 0 .585.259.664 1.106.035.373.176.79.313.928.379.379.496 1.085.28 1.684-.268.744-.147 2.875.203 3.576.158.318.288.951.288 1.409s.078.88.174.939c.095.059.173.302.173.54 0 .238.13.683.29.988.208.397.306 1.104.344 2.467.03 1.051.086 2.38.125 2.953.038.574.087 1.55.107 2.172.02.62.193 2.106.383 3.3.191 1.195.366 2.492.39 2.882.024.391.11.817.19.947.226.366.627 2.549.718 3.902.163 2.435.098 6.509-.108 6.775-.074.095-.187.592-.253 1.104-.065.513-.223 1.099-.352 1.303-.129.205-.352.958-.496 1.675-.197.982-.492 1.687-1.2 2.866-.516.86-1.09 1.988-1.276 2.506-.388 1.08-.604 1.222-1.08.71zm-69.265-46.807c1.712-.17 2.73-.4 3.648-.82.478-.22.995-.41 1.149-.422.99-.082 5.371-2.122 6.31-2.94.281-.243.71-.493.954-.554.244-.061.54-.196.658-.3a78.89 78.89 0 011.551-1.23c1.333-1.039 4.405-4.031 4.405-4.29 0-.075.156-.234.347-.353.191-.12.348-.302.348-.406 0-.104.2-.376.444-.606.244-.23.69-.847.99-1.372.777-1.357 1.893-2.611 2.326-2.613.323 0 .388.42.136.876-.13.235-.239.67-.242.97-.009.743-1.059 3.234-1.794 4.253-.18.25-.3.64-.269.869.088.616.927.514 1.984-.242.47-.336 1.206-.792 1.636-1.012.847-.434 4.201-2.572 4.343-2.768.048-.066.439-.299.869-.516s1.023-.58 1.32-.806c.295-.225.584-.409.642-.409.058 0 .452-.234.877-.521.425-.287.816-.521.869-.521.198 0 1.677-1.073 1.677-1.217 0-.082.176-.205.39-.273.57-.18 1.788-1.19 3.122-2.586a200.49 200.49 0 011.68-1.744c.613-.62 1.497-2.25 1.772-3.267.19-.707.327-1.09.673-1.9.092-.216.293-.821.448-1.347.155-.525.355-1.138.444-1.362.453-1.128.277-6.277-.237-6.933-.207-.264-1.067-.284-1.531-.036-.186.1-.534.49-.773.869-.238.378-.572.687-.74.687-.169 0-.487.126-.708.28-.294.207-.451.23-.594.088-.107-.107-.335-.194-.507-.194s-.312-.117-.312-.26a.256.256 0 00-.249-.261c-.375 0-1.089-1.04-2.027-2.953-.304-.621-.66-1.337-.79-1.59-.302-.594-.296-.757.044-1.096.327-.328.787-.229 1.545.332.692.512 1.113.618 2.881.73 1.747.11 2.378-.062 4.624-1.256 3.243-1.725 4.13-2.457 6.024-4.974l.979-1.3.47-2.85c.843-5.117.533-8.745-.933-10.927l-.84-1.252c-.238-.354-.595-.731-.795-.838-.209-.112-.323-.3-.269-.442.062-.16-.021-.247-.237-.247-.182 0-.38-.079-.439-.174-.26-.423-2.293-1.24-3.295-1.326-1.045-.089-1.513.03-4.609 1.176-1.436.532-4.483 2.895-4.986 3.866-.148.288-.377.63-.508.761a.924.924 0 00-.238.565c0 .185-.35.595-.806.943l-.806.615-.54-.318c-.298-.175-.67-.287-.83-.25-.158.037-.842.692-1.52 1.456-.942 1.062-1.23 1.51-1.23 1.908 0 .286-.155.821-.343 1.19-.188.368-.47 1.479-.626 2.468-.157.99-.344 1.916-.416 2.06-.188.378-.632.415-1.953.166-1.303-.246-1.2-.114-1.702-2.163-.164-.67-.506-1.646-.76-2.169-.594-1.224-.51-1.438.545-1.381 1.611.087 1.78.04 1.742-.49-.042-.587-.233-.733-.962-.736-.31-.001-.857-.159-1.213-.35-.357-.191-.78-.348-.94-.348-.266 0-1.364-1.186-1.364-1.474 0-.067-.45-.781-.999-1.587-.549-.806-1.124-1.695-1.278-1.977-.154-.281-.565-.804-.912-1.162-.539-.554-.844-1.27-.542-1.27.251 0 1.44.903 1.82 1.382.77.971 1.345 1.213 2.855 1.205 1.39-.007 2.096-.197 2.253-.607.09-.234-.505-.763-.858-.763-.104 0-.419-.244-.7-.541a4.886 4.886 0 00-1.204-.875c-.383-.183-.861-.43-1.064-.55-.486-.284-4.203-4.053-4.66-4.724a34.949 34.949 0 00-1.109-1.476c-1.162-1.474-3.31-4.825-3.896-6.079-.29-.62-.711-1.37-.936-1.666a4.743 4.743 0 01-.606-1.129c-.109-.326-.344-.754-.522-.951-.379-.42-1.365-3.235-1.365-3.895 0-.25-.087-.54-.193-.647-.115-.115-.193-.887-.193-1.92 0-2.714.885-4.966 2.862-7.289 1.065-1.25 1.642-1.612 2.577-1.612.267 0 .533-.078.592-.173.06-.096.235-.174.39-.174.155 0 .6-.154.989-.341 1.01-.488 4.382-1.57 4.892-1.57.483 0 1.715-.578 1.912-.897.299-.484-1.451-1.105-4.882-1.733-1.05-.192-2.302-.385-2.78-.428a29.125 29.125 0 01-1.823-.24c-1.317-.221-3.562-.072-5.076.338-.696.189-1.656.339-2.134.334a6.012 6.012 0 00-1.65.254c-.43.145-1.172.34-1.65.434-.478.094-1.064.216-1.303.272-.239.056-.708.15-1.042.211-.335.06-1.168.37-1.851.686-.684.317-1.387.575-1.564.573-.516-.006-1.382.277-4.002 1.31-1.357.534-2.663.97-2.904.97-.26 0-.513.142-.623.348-.103.191-.341.347-.53.347-.19 0-.785.235-1.322.522-.537.286-1.117.52-1.29.52s-.36.079-.42.174c-.059.096-.25.174-.425.174-.176 0-.364.117-.419.26-.055.144-.254.261-.443.261-.188 0-.394.083-.456.185-.063.101-.282.258-.488.35-.206.09-1.117.63-2.024 1.2-.908.57-1.932 1.19-2.276 1.378-.344.188-.97.601-1.39.918-.42.316-1.311.757-1.98.98-.67.222-1.311.526-1.427.675-.145.185-.544.278-1.279.297-.964.025-1.165-.036-2.078-.629-.555-.36-1.064-.834-1.13-1.05-.066-.218-.464-.923-.885-1.568-.605-.926-.856-1.172-1.196-1.172-.237 0-.43.061-.43.136 0 .075-.255.282-.565.46-.572.329-1.329 1.105-1.34 1.375-.012.273-.595 1.408-1.24 2.411-.35.548-.688 1.195-.749 1.438-.061.244-.343.82-.628 1.282-.284.462-.516.895-.516.962 0 .067-.313.786-.695 1.598-.382.812-.695 1.54-.695 1.618s-.112.235-.25.35c-.137.113-.303.455-.37.759-.065.304-.227.707-.358.895-.13.189-.238.465-.238.615 0 .15-.312 1.09-.694 2.09-.381.999-.768 2.267-.859 2.817-.09.55-.213 1.076-.27 1.17-.2.322-.441 6.217-.273 6.658.089.234.426.688.749 1.01.323.321.746.819.94 1.106.419.62.928 2.142.928 2.774 0 .427.355 1.134.809 1.61.566.594.748 2.798.245 2.966-.102.034-.185.17-.185.302s-.237.496-.527.81c-.29.314-.583.633-.652.71-.068.075-.417.398-.774.716-.357.318-.668.725-.692.904-.072.557.237 3.927.4 4.354.149.394.301 1.192.673 3.528.2 1.256.492 2.297.827 2.953.122.24.222.63.224.869 0 .239.118.658.261.932s.26.595.26.714.22.755.49 1.413c1.48 3.602 1.807 5.129 1.834 8.533.018 2.222-.022 2.629-.297 3.035-.245.36-.316.782-.306 1.824.021 2.382.303 3.31 1.423 4.688.325.4.903 1.165 1.285 1.7 2.219 3.105 6.931 8.596 8.108 9.446.35.253 1.015.757 1.477 1.12 1.56 1.227 3.962 3.003 4.573 3.38 1.551.958 5.9 2.996 6.392 2.996.295 0 .581.073.636.162.055.089.549.253 1.096.365.548.112 1.153.27 1.344.353.19.082.582.183.868.223.733.102 10.202-.01 11.465-.136zm-7.817-5.41c-1.153-.32-3.194-.62-4.67-.683-.854-.037-1.324-.149-1.65-.392-.581-.434-.59-1.034-.02-1.333.881-.463 2.546-.88 3.492-.874.892.01 1.101.09 2.476 1.005.826.55 1.629 1.194 1.785 1.432.264.403.262.456-.027.776-.17.188-.357.336-.414.327-.057-.01-.494-.124-.972-.257zm-12.726-4.9c-.311-.26-.565-.553-.564-.65.002-.233.976-1.299 1.186-1.299.089 0 1.364-.579 2.833-1.286s3.022-1.377 3.452-1.488c.43-.11 1.016-.267 1.303-.346 1.137-.316 5.646.13 5.646.559 0 .092.116.122.258.068.141-.054.474.013.738.149.264.136 1.106.538 1.87.892 1.489.69 2.318 1.447 2.352 2.147.011.24.06.336.109.216.048-.12.16-.174.247-.12.358.222.11.537-.722.918-.957.44-.882.45-2.854-.397a12.695 12.695 0 00-1.303-.441 22.93 22.93 0 01-1.437-.457c-.36-.132-.833-.24-1.051-.24-.218 0-.485-.088-.593-.196-.238-.238-2.921-.23-3.84.01-.35.093-1.144.221-1.765.288-.647.069-1.326.258-1.59.443-.254.178-.544.324-.644.324-.26 0-2.447 1.06-2.558 1.24-.16.258-.487.156-1.073-.333zm4.678-6.464c-.589-.14-1.593-.956-1.593-1.296 0-.488-1.064-2.319-1.398-2.406-.346-.09-1.273.136-1.642.401-.095.07-.932.173-1.859.23-1.63.103-1.724.088-2.866-.441-2.605-1.207-3.528-2.28-4.064-4.723-.208-.946-.195-1.113.169-2.172.52-1.517.776-2.102.919-2.102.065 0 .371-.213.68-.473.31-.26 1.005-.71 1.546-1 1.122-.6 2.266-1.337 2.625-1.692.713-.705 2.521-1.394 3.184-1.212.729.2.926.591.57 1.135-.253.385-2.736 2.2-3.01 2.2-.056 0-.398.234-.759.52-.361.286-1.116.748-1.678 1.027-1.165.578-1.447.849-2.033 1.95-.651 1.225-.735 2.089-.29 3.006.599 1.239 1.402 1.593 3.965 1.75 1.228.075 1.634.024 2.74-.348.714-.24 1.394-.436 1.511-.436.35 0 2.259-.964 2.795-1.41 1.287-1.073 1.626-1.517 1.727-2.267.142-1.048-.195-1.534-1.064-1.534-.36 0-.739.083-.84.184-.1.1-.605.227-1.12.28-.802.082-.984.044-1.265-.268-.269-.298-.288-.41-.109-.627.12-.145.301-.264.401-.264s.314-.119.475-.264c.388-.351 2.104-.704 2.529-.52.183.08.396.13.474.113.255-.056 1.24.574 1.726 1.105.59.644.904 1.688.695 2.319-.083.253-.17 1.047-.193 1.764-.022.716-.08 1.436-.128 1.6-.05.164-.003.456.1.65.104.195.2.934.215 1.644.029 1.397-.197 1.917-1.385 3.185-.544.58-.754.627-1.75.392zm-19.15-14.521c-.248-.3-.08-.73.371-.954.933-.46 1.889-.844 2.334-.937 1.211-.25 1.763-.403 2.186-.604.648-.307 1.773.163 1.692.708-.031.207-.174.437-.317.51-1.737.895-3.972 1.496-4.883 1.314-.321-.065-.479-.039-.414.067.178.287-.724.19-.969-.104zm44.381-5.98c-.295-.064-.628-.174-.74-.243-.29-.18-3.042-.434-5.672-.525a467.237 467.237 0 01-4.256-.168c-1.099-.05-2.464-.026-3.033.052-1.92.264-3.052-.708-1.308-1.122.429-.102.909-.244 1.066-.317.157-.072.392-.112.521-.09.49.088 2.697-.231 3.41-.492.572-.209.84-.228 1.162-.081.278.126.607.136.984.028.346-.1.806-.1 1.184-.003.34.087 1.147.195 1.793.24.647.043 1.282.167 1.411.275a.57.57 0 00.512.09c.281-.109 2.498.538 2.799.815.09.084.372.153.625.153.528 0 1.295.586 1.126.86-.232.375-1.047.647-1.584.53zm-9.496-2.532c-.165-.166-.497.102-.374.302.074.119.17.116.296-.009.102-.102.137-.234.078-.293zm-33.79 1.42c-1.017-.92-2.017-3.088-2.209-4.793-.32-2.847-.316-3.027.088-3.967.256-.594.565-1.003.881-1.166.64-.331.68-.326 1.27.182.278.239.562.434.632.434s.251.263.403.584c.153.32.552.983.889 1.472.355.516.611 1.1.611 1.393 0 .277.108.593.24.702.479.398 1.023 3.396.777 4.287-.292 1.056-.838 1.464-1.964 1.464-.851 0-1.038-.069-1.618-.592zm25.302-3.84c-.25-.134-.55-.478-.669-.764-.118-.286-.396-.639-.618-.784-.287-.188-.463-.553-.61-1.268a23.774 23.774 0 00-.463-1.832c-.186-.601-.23-1.29-.161-2.519.115-2.056.412-3.18 1.026-3.88.735-.837 1.129-.654 1.95.905.381.726.83 1.505.998 1.732.167.226.304.627.304.89s.152.729.338 1.035c.187.306.3.619.253.695-.047.077-.01.28.082.453.093.173.213.955.268 1.739.055.783.12 1.484.143 1.557.077.236-.7 1.344-1.207 1.717-.705.522-1.117.604-1.634.325zm50.831-4.254a6.655 6.655 0 00-1.178-.153c-.409-.013-.694-.119-.756-.281-.055-.143-.215-.26-.354-.26-.342 0-1.469-1.214-1.332-1.435.067-.11.593-.135 1.387-.068.798.068 1.278.044 1.278-.063 0-.095.158-.172.35-.172.194 0 .783-.41 1.311-.91 1.25-1.185 1.247-1.626-.016-2.13-.48-.19-1.22-.68-1.642-1.086-.422-.406-.825-.738-.895-.738s-.292-.232-.494-.515c-.347-.488-.351-.54-.08-.954.159-.241.352-.4.43-.351.077.048.309-.148.514-.436.204-.288.478-.523.608-.523s.403-.212.606-.47l.37-.47-.4-.308c-.621-.477-1.634-.409-2.147.144-.507.548-.843 1.669-.705 2.357.055.272.05.965-.01 1.54-.098.936-.148 1.04-.475.994-.256-.037-.382-.2-.421-.546-.049-.422-.116-.478-.466-.39-.297.074-.435.02-.503-.202-.16-.519.048-3.013.314-3.762.139-.391.297-.907.352-1.146.11-.483.862-1.345 1.503-1.724.496-.292 1.953-1.083 3.274-1.776 1.743-.914 2.953-.572 5.107 1.445 1.156 1.082 1.365 1.364 1.39 1.875.047.969-.453.9-1.6-.219-1.442-1.408-2.322-1.77-3.203-1.316-.545.28-1.161.873-1.161 1.116 0 .115.508.775 1.129 1.468s1.13 1.39 1.13 1.551c0 .319-.9 1.242-1.52 1.561-.562.288-.484.763.25 1.523 1.015 1.051 2.153 2.824 2.081 3.244-.164.97-1.297 2.544-1.83 2.544-.102 0-.269.156-.37.346-.155.289-1.08.917-1.252.85a14.8 14.8 0 00-.574-.154zm-4.386-5.85c-.225-.157-.39-.453-.39-.699v-.426l.52.521c.773.773.687 1.174-.13.604zm-78.1-13.29c-.64-.503-.974-1.403-1.093-2.94-.093-1.21-.063-1.379.4-2.244.275-.514.813-1.54 1.195-2.279.657-1.268.902-1.617 2.322-3.295.573-.677 1.207-.887 1.685-.558.356.245 1.292 1.757 1.292 2.086 0 .183.156.475.347.648.371.335.46.865.174 1.042-.096.059-.174.288-.174.51s-.121.503-.27.626a.737.737 0 00-.226.586c.023.2-.106.636-.286.97-.18.335-.343.689-.36.787-.018.098-.296.452-.618.785-.888.92-2.314 2.612-2.388 2.835-.279.83-1.237 1.041-2 .441zm33.334-3.504c-.412-.21-3.013-3.184-3.75-4.287-.284-.425-.565-.972-.625-1.216-.06-.244-.186-.495-.28-.557-.258-.168-.675-1.353-.768-2.18-.062-.547.03-.968.369-1.683.248-.524.45-1.031.45-1.126 0-.247.965-.9 1.46-.99.314-.057.538.066.89.489.258.31 1.094 1.245 1.857 2.075.763.83 1.673 1.925 2.021 2.432.35.507.712.977.806 1.045.095.067.188.537.206 1.042.032.844.19 1.706.496 2.692.094.306-.047.546-.7 1.19-.664.654-1.81 1.37-2.035 1.272a18.38 18.38 0 01-.397-.198zm1.303-7.173c0-.042-.078-.077-.174-.077-.095 0-.173.083-.173.184 0 .101.078.136.173.077.096-.06.174-.142.174-.184zm10.336 76.358c.06-.096-.014-.174-.163-.174-.15 0-.271.078-.271.174 0 .096.073.173.163.173.09 0 .212-.078.271-.173zm-33.495-.739a74.185 74.185 0 011.771-1.43c.49-.381.937-.834.992-1.008.12-.379-.28-1.03-.896-1.46-.248-.173-.964-.691-1.592-1.152-.838-.615-1.244-.811-1.532-.74-.559.141-.807 1-.682 2.36.057.62.033 1.622-.053 2.226-.139.963-.117 1.148.175 1.52.466.591.806.532 1.817-.316zm-23.918-10.38a.174.174 0 10-.348 0 .174.174 0 00.348 0zm10.154-6.935c.054-.088.438-.147.853-.131 1.24.048 1.606-.525 1.075-1.68-.51-1.108-.812-2.774-.805-4.435.01-2.153.24-3.237 1.203-5.639.398-.991.29-3.033-.22-4.166a17.313 17.313 0 01-.62-1.594c-.118-.383-.431-1.164-.695-1.738-.264-.573-.521-1.237-.572-1.476-.179-.855-1.131-3.953-1.327-4.318-.3-.561-.66-.45-1.055.322-.195.383-.431.707-.525.721a7.186 7.186 0 01-.361.044c-.222.02-.851-1.537-.851-2.105 0-.212-.133-.664-.296-1.004-.34-.712-.953-.959-1.405-.565-.163.142-.532.311-.818.376-1.735.39-1.897.406-2.202.216a.755.755 0 01-.317-.575c0-.306.23-.468 1.212-.853 1.635-.642 4.233-3.024 4.84-4.44.222-.514.62-1.365.884-1.89 1.098-2.178 1.856-5.314 1.598-6.61-.35-1.753-1.875-3.987-2.721-3.987-.835 0-1.295.357-1.324 1.027-.123 2.75-.096 2.578-.837 5.227a58.25 58.25 0 01-.715 2.345c-.193.573-.42 1.316-.506 1.65-.2.78-1.15 2.683-1.473 2.951-.41.34-1.08 1.599-1.473 2.764-.203.603-.49 1.28-.637 1.505-.147.225-.218.489-.158.587.06.097.018.485-.095.861-.239.797.045 3.627.464 4.629.135.324.246.854.246 1.176 0 .323.133.853.295 1.178.316.635.494 1.454.73 3.371.082.67.232 1.568.332 1.998.1.43.272 1.954.381 3.387.268 3.512.595 4.392 2.525 6.784.564.7 1.122 1.823 1.122 2.26 0 .125-.273.327-.608.448-.455.164-.608.32-.608.619 0 .329.1.405.565.43.31.016.799.058 1.085.093.287.034 1.186.124 1.998.2.812.076 1.53.152 1.597.168.066.016.164-.043.219-.13zm56.412-93.417c-.125-.05-.275-.044-.333.014-.058.058.045.099.228.091.202-.008.244-.05.105-.105zm27.428 154.8c-.648-.545-.668-.866-.1-1.635.239-.323.434-.65.434-.725 0-.075.385-.702.856-1.392.574-.841.813-1.343.725-1.523-.071-.147-.149-.805-.173-1.462-.023-.656-.121-1.399-.217-1.65-.214-.558-.413-3.985-.265-4.56.14-.543 1.355-1.854 2.07-2.233.763-.405 1.206-1.338 1.003-2.112-.126-.482-.365-4.768-.357-6.405.002-.239-.123-1.308-.277-2.377l-.28-1.943.644-.786c.619-.755 1.152-1.091 1.443-.912.075.047.154.502.175 1.01.02.51.147 1.512.28 2.229.277 1.479.282 1.55.295 3.878.005.948.118 2.067.255 2.519.136.446.248 1.168.249 1.603.002.434.095.884.21.998.376.376 1.112.223 1.928-.4.438-.334.849-.607.914-.607.123 0 1.759-1.263 2.837-2.19.775-.667 1.278-.937 1.745-.937.197 0 .359-.078.359-.174 0-.21.464-.232.59-.027.197.318-1.467 2.082-3.302 3.502a473.339 473.339 0 00-5.197 4.082c-.718.573-1.627 1.215-2.018 1.426-1.315.707-1.886 1.512-1.886 2.66 0 2.05 2.012 2.287 2.518.295.247-.976.716-1.55 1.207-1.479.287.041.368.198.41.794.066.903-.44 2-1.401 3.042-.574.621-.9 1.1-1.856 2.73l-.921 1.563a49.384 49.384 0 00-1.252 2.258c-.802 1.588-.846 1.613-1.645.94zm-22.037-13.077c-.327-.202-1.08-1.413-1.08-1.737 0-.568.536-2.12 1.227-3.553.81-1.677 2.533-4.49 2.872-4.685.13-.075.45-.506.711-.956.26-.45.834-1.287 1.273-1.86.44-.574.85-1.18.914-1.347.063-.167.229-.304.368-.304s.434-.254.653-.564c.38-.537 1.777-1.947 3.53-3.561.442-.406.95-.739 1.131-.739.181 0 .377-.078.436-.173.212-.343.585-.16 1.587.785.56.527 1.195 1.113 1.41 1.301.215.189.39.433.39.542s-.351.514-.781.9c-.43.387-.782.793-.782.902s-.328.506-.73.88a99.054 99.054 0 00-1.9 1.855c-.643.645-1.273 1.175-1.398 1.178-.327.01-1.024.672-1.549 1.474-.248.38-.913 1.168-1.476 1.749-.564.58-1.26 1.354-1.546 1.718-.809 1.029-1.724 2.083-1.862 2.145-.068.031-.381.49-.695 1.018a46.063 46.063 0 01-.83 1.356c-.144.217-.41.631-.593.922-.364.577-.98.94-1.28.754zm.732-.872c.052-.085-.013-.243-.144-.352-.181-.151-.26-.14-.333.05-.149.387.263.647.477.302zm15.727-24.222c-.14-.127-1.012-.674-1.937-1.217-1.82-1.069-2.446-1.687-2.365-2.34.064-.516 1.034-.896 2.31-.904.478 0 1.533-.12 2.345-.257.812-.139 1.75-.297 2.085-.351.863-.14 1.491.23 1.426.838-.03.287.047.508.2.567.203.078.212.17.048.475-.336.625-.868 1.381-1.298 1.846a6.46 6.46 0 00-.681.906c-.395.668-1.603.916-2.133.437zm-122.91-23.6c-.293-.373-.402-1.045-.223-1.379.106-.2.103-.347-.01-.416-.095-.06-.174-.29-.174-.51 0-.222-.117-.684-.26-1.027-.35-.838-.341-.888.274-1.518.448-.458.63-.533 1.11-.455.315.051.652.014.75-.084.12-.12.33-.102.653.058.353.174.541.46.723 1.103.135.478.319 1.109.409 1.402.22.717.205 1.179-.052 1.76-.332.75-.652.997-1.332 1.024a7.497 7.497 0 00-1.155.15c-.362.084-.59.05-.713-.108zm.462-.656c0-.09-.078-.212-.174-.271-.095-.06-.173.014-.173.163s.078.271.173.271c.096 0 .174-.073.174-.163zm16.025-1.86c-.382-.16-.233-.737.26-1.004.263-.143.412-.263.332-.266-.08-.004.24-.38.713-.836.473-.456.987-1.076 1.143-1.378.156-.301.437-.597.625-.656a.776.776 0 00.448-.449c.096-.303 1.126-1.008 1.126-.77 0 .052.25-.034.555-.192.544-.281.562-.278.955.18.523.607.506 1.024-.077 1.847-.49.693-.816.85-.97.466-.049-.12-.094-.047-.102.162-.008.209-.158.425-.335.481-.176.056-.405.287-.509.514-.22.483-1.047.934-1.989 1.084-.367.06-.766.248-.886.42-.234.332-.931.548-1.289.398zm-18.28-5.698c-.098-.256-.177-.817-.177-1.245 0-.429-.123-1.017-.274-1.308-.15-.29-.229-.573-.175-.627.054-.054.012-.202-.094-.33-.105-.126-.232-.72-.282-1.318-.05-.598-.155-1.13-.236-1.182-.08-.052-.176-.716-.213-1.476-.037-.76-.195-1.673-.352-2.029a3.923 3.923 0 01-.285-1.325c0-.391-.11-.77-.26-.895-.144-.119-.261-.4-.261-.623 0-.224-.108-.664-.24-.978a14.915 14.915 0 01-.446-1.265 8.81 8.81 0 00-.405-1.1c-.325-.662.13-1.205 1.499-1.784.654-.277 1.38-.504 1.613-.504.508 0 1.789.625 1.887.92.096.288.266 2.383.315 3.879.024.757.135 1.351.286 1.533.162.195.258.808.283 1.803.021.828.128 2.25.237 3.157.109.907.238 2.392.287 3.3.07 1.313.157 1.722.426 2.008.665.709.217 1.308-1.139 1.522-.382.06-.947.16-1.256.222-.496.099-.581.058-.738-.355zm14.892-5.36c-.263-.104-.478-.256-.478-.338 0-.082.45-.346 1-.586.549-.24 1.584-.718 2.3-1.064.717-.346 1.343-.63 1.39-.63.048-.002.224-.13.39-.285.167-.155 1.048-.69 1.958-1.188 1.564-.856 1.691-.896 2.328-.725.775.209.996.59.65 1.115-.134.201-1.304.895-2.601 1.54-1.298.647-2.407 1.253-2.465 1.347-.059.094-.32.172-.582.172s-.56.082-.66.183c-.1.1-.644.25-1.207.332-.563.082-1.141.186-1.285.232-.143.046-.475-.001-.738-.105zm.13-9.155c-.06-.096-.298-.127-.531-.068-.246.062-.424.03-.424-.075 0-.29.97-.899 1.432-.899.233 0 .769-.192 1.19-.427a52.9 52.9 0 011.634-.866c.851-.429 1.704-.939 2.536-1.515.23-.16.802-.316 1.273-.348.814-.055.873-.029 1.204.534l.35.592-.678.569c-.372.312-.953.62-1.291.683-.338.063-.693.177-.788.253-.096.076-.526.217-.956.313-.43.097-1.563.458-2.518.802-1.825.658-2.256.738-2.433.452zm-5.501-9.599c-.127-.122-.561-.368-.965-.547-.403-.179-.95-.552-1.216-.83-.682-.714-1.52-1.075-1.88-.811-.244.178-1.296.093-1.73-.14-.212-.115-1.109-.162-2.315-.121-1.756.059-2.02.028-2.459-.283-.27-.193-.595-.353-.724-.356-.443-.012-1.13-.778-1.593-1.78-.256-.551-.465-1.076-.465-1.166s-.158-.247-.352-.35c-.295-.159-.438-.104-.884.343-.722.721-1.178.944-1.85.9-.351-.023-.548.039-.52.163.025.11-.228.356-.562.547-.481.275-.896.343-1.998.324-.909-.015-1.45-.1-1.564-.248a1.262 1.262 0 00-.475-.338c-.174-.065-.26-.22-.203-.367.073-.192.003-.23-.286-.155-.253.067-.437.003-.543-.186-.188-.335-1.198-.385-2.016-.1-.338.118-.81.132-1.285.039-.658-.13-.758-.21-.809-.651-.043-.373-.097-.44-.21-.256-.125.2-.211.17-.464-.163a6.66 6.66 0 00-.726-.782 7.86 7.86 0 01-.562-.545c-.72-.856-1.02-1.307-1.02-1.536 0-.149-.231-.49-.514-.757-.283-.267-.83-1.063-1.215-1.768-.58-1.062-.683-1.39-.596-1.91.058-.347.14-.982.184-1.412.044-.43.189-1.022.322-1.315.147-.324.283-1.472.348-2.935.117-2.654.438-3.859 1.289-4.84.262-.303.526-.752.585-.997.06-.245.267-.628.46-.851.195-.224.354-.531.354-.684 0-.152.118-.501.26-.775.143-.274.26-.57.26-.659 0-.213.494-.7 1.088-1.072.368-.23.56-.258.825-.116.481.258.433.82-.173 2.016-.286.563-.52 1.14-.522 1.284 0 .143-.156.666-.344 1.16-.188.496-.425 1.422-.527 2.058-.128.804-.414 1.565-.933 2.488-1.577 2.806-1.719 4.69-.472 6.28.61.778 1.58 2.835 1.58 3.35 0 .68.46 1.118 1.43 1.357 1.041.257 1.504.23 1.852-.106.298-.288.055-.981-.744-2.12-.477-.68-.52-.873-.59-2.606-.079-2.003.296-4.116 1.024-5.773.335-.763.32-1.622-.033-1.84-.28-.174-.173-.704.24-1.185.22-.257.665-.914.988-1.46.323-.547.71-1.142.86-1.321.419-.505 2.802-2.264 3.51-2.593.713-.33 1.804-.383 2.497-.12.73.278 2.48 1.7 2.618 2.129.532 1.654.348 3.517-.535 5.427-.9 1.946-1.089 2.391-1.312 3.11-.116.372-.438.998-.716 1.39-1.332 1.88-1.709 2.458-1.709 2.623 0 .099-.233.608-.518 1.132a24.221 24.221 0 00-.707 1.386 3.42 3.42 0 01-.503.782c-.57.628-1.181 1.975-1.097 2.418.136.709 1.157 1.226 2.858 1.448 2.11.276 3.17-.077 4.053-1.353.448-.646.5-.86.479-1.966-.013-.683-.1-1.44-.191-1.682-.31-.816.32-4.512.902-5.287.217-.29.722-1.113 1.12-1.83.854-1.53 1.148-1.887 1.911-2.316.964-.54 1.487-.616 2.55-.369 1.092.254 1.575.623 2.367 1.813.423.635.509.92.446 1.48-.114 1.026-1.139 3.735-1.663 4.399-1.034 1.31-3.309 3.716-5.015 5.306-.497.463-.49.626.06 1.536.494.817 2.854 2.701 3.957 3.16.937.388 2.233.367 2.605-.044.245-.27.278-.599.21-2.041-.134-2.815.565-5.282 2.081-7.344.465-.632.91-1.177.989-1.21.078-.033.366-.248.64-.478.97-.817 2.081-.403 3.027 1.13.348.563.632 1.13.632 1.26 0 .131-.147.627-.328 1.104-.823 2.173-1.583 4.626-1.583 5.112 0 .18-.39.757-.868 1.28-.478.522-.869 1.101-.869 1.286 0 .472.717 1.092 1.262 1.092.252 0 .888.112 1.414.249.99.257 1.481.19 2.593-.355.27-.133.605-.242.744-.242.27 0 1.18-.96 1.672-1.764.33-.54.78-.648.942-.224.166.432-.41 1.481-1.352 2.467-1.076 1.125-2.082 1.813-3.106 2.125-.43.131-.864.3-.964.374-.101.074-.531.158-.956.186-.687.045-.778.007-.828-.34-.03-.216-.162-.392-.294-.392-.336 0-.519.36-.262.52.14.085.152.17.036.242-.098.06-.282.01-.41-.112zm-.392-7.207c.172-.359.329-.77.35-.912.04-.292.357-1.196.708-2.024.314-.742.291-1.377-.072-2.032-.38-.685-.542-.804-1.086-.8-1.134.007-1.728 1.297-1.733 3.762-.005 2.156.176 2.657.96 2.657.476 0 .607-.098.873-.651zm-20.986-3.822c.28-.359.619-.86.752-1.117.134-.255.659-1.232 1.167-2.171.508-.939 1.015-2 1.128-2.358.112-.358.255-.651.317-.651.186 0 .692-1.413.871-2.432.21-1.2.196-4.797-.02-5.202-.09-.167-.439-.514-.776-.771l-.614-.468-.932.441c-1.043.494-2.325 1.597-2.956 2.545-.761 1.143-.846 1.712-.852 5.687-.005 3.119.043 3.871.28 4.407.157.355.285 1.065.285 1.578 0 .512.052.984.116 1.047.278.278.76.069 1.233-.535zm11.519-.435c.781-.8 1.663-2.458 1.823-3.43.055-.335.25-1 .433-1.477.408-1.063.502-2.717.177-3.109-.378-.455-1.245-.333-2.258.32-1.26.81-1.537 1.309-1.457 2.615.11 1.828.047 2.927-.198 3.419-.373.748-.51 1.852-.266 2.146.38.459.99.29 1.746-.484zM77.02 38.57c-1.983-1.2-2.65-1.662-3.16-2.192-.258-.267-.604-.486-.769-.486-.165 0-.423-.112-.574-.248-.151-.137-1.1-.673-2.11-1.193-2.204-1.136-3.216-1.752-3.854-2.347-.54-.505-.628-1.062-.173-1.103.833-.076 1.302.088 2.562.897.382.245 1.125.637 1.65.872.526.234.995.473 1.042.53.048.057.478.325.956.597.478.27 1.26.819 1.737 1.217.478.398 1.064.827 1.303.953.375.196 1.27.881 3.086 2.36.493.401.444.942-.084.936-.17-.002-.896-.359-1.612-.793zm-30.574-3.318c-.375-.549-.437-.842-.455-2.126-.028-2.152-.212-3.234-.61-3.594-.604-.547-1.312-.722-5.276-1.304-.669-.099-1.548-.347-1.954-.553-.601-.305-.739-.464-.739-.856 0-.265.077-.481.171-.481.094 0 .538-.352.987-.782.448-.43.915-.782 1.037-.782.122 0 .517-.2.878-.445a11.34 11.34 0 011.226-.716c.67-.318 1.39-1.123 1.541-1.723.059-.234.011-.756-.105-1.16a8.102 8.102 0 01-.251-1.527c-.022-.437-.101-.894-.176-1.015-.075-.122-.164-.624-.197-1.117a10.187 10.187 0 00-.272-1.666c-.188-.687-.178-.79.095-.955.17-.102.469-.322.667-.49.46-.389.701-.383 1.071.026.234.258.249.352.07.433-.125.057-.041.056.186-.001.312-.079.513.013.825.377.42.488.778.736 1.715 1.189.287.138.694.414.905.612s.422.361.469.361c.047 0 .43.233.85.517.864.582 1.1.562 2.806-.245.518-.245 1.101-.446 1.297-.446.195 0 .571-.194.836-.432 1.793-1.612 2.654-1.973 3.26-1.367.33.33.27.695-.337 2.021-.228.5-.58 1.455-.782 2.124-.202.668-.45 1.475-.552 1.792-.108.337-.135 1.003-.066 1.6.117 1.009.137 1.039 1.275 1.957a42.059 42.059 0 002.236 1.668c.594.404 1.277.97 1.519 1.257.42.499.427.545.167 1.048-.198.383-.364.502-.607.439-.184-.048-.378-.017-.431.07-.149.24-.825.187-1.231-.097-.2-.14-.403-.215-.451-.167-.049.048-1.29.088-2.76.09-3.796.001-4.146.117-4.93 1.634-.148.287-.496.912-.775 1.39-.278.478-.62 1.113-.759 1.412-.14.299-.34.596-.445.662-.105.065-.191.312-.191.549 0 .527-.66 1.46-1.032 1.458-.149 0-.466-.288-.705-.639zm2.345-6.066c.19-.393.616-1.018.945-1.39l.597-.676 2.443-.01c2.451-.01 3.224-.17 3.224-.666 0-.127-.584-.71-1.297-1.295-1.824-1.496-2.049-2.066-1.353-3.426.256-.502.594-1.49.691-2.025.07-.38 0-.512-.354-.673-.378-.173-.56-.133-1.279.28-2.347 1.348-2.685 1.377-3.8.334a12.544 12.544 0 00-1.38-1.096 8.572 8.572 0 01-1.165-.934c-.282-.287-.657-.478-.937-.478h-.467l.112 1.173c.061.644.23 1.556.372 2.025.5 1.636.247 3.577-.465 3.577-.082 0-.773.401-1.536.892-.914.587-1.387 1.001-1.387 1.213 0 .45.936.802 2.75 1.037 2.272.295 2.158.213 2.968 2.126.436 1.03.82 1.034 1.318.012zm8.338-13.966c.06-.096-.053-.174-.25-.174s-.358.078-.358.174c0 .095.113.173.25.173.138 0 .3-.078.358-.173zm22.808 16.9a35.75 35.75 0 00-.742-.745c-.15-.143-.925-.944-1.723-1.78-.798-.836-1.538-1.52-1.644-1.52-.107 0-.383-.3-.614-.666s-.645-.855-.918-1.086c-.766-.647-1.282-1.575-1.077-1.94.526-.94 2.349.305 5.043 3.446.895 1.043 1.832 2.17 2.083 2.504.251.334.625.8.831 1.034.889 1.01-.294 1.73-1.239.754zm3.725-7.266c-.31-.13-.563-.313-.563-.405 0-.093-.488-.681-1.085-1.308-1.344-1.41-2.042-2.332-2.042-2.7 0-.154-.129-.464-.287-.69-.234-.335-.248-.473-.075-.75.117-.188.164-.39.104-.45-.06-.059-.172-.004-.25.123-.093.15-.182.167-.254.05-.137-.22.547-.725.983-.725.853 0 2.462 1.296 2.626 2.115.132.66 1.12 2.931 1.43 3.284.253.29.333 1.472.108 1.611-.073.045-.385-.025-.695-.155z"/></svg>