<svg version="1.0" xmlns="http://www.w3.org/2000/svg" width="1706.667" height="853.333" viewBox="0 0 1280 640"><path d="M300 24.1c-17.3 1.8-34.3 7.9-42.2 15.2-4.5 4.1-6.3 11.3-6.1 24.7.2 15.8 7.2 32.5 19.4 46.4l4.3 4.9.2 21.6c.6 61.9.6 75.3.1 75.8-.4.3-14.5 0-31.4-.7-33.6-1.3-138.8-.6-154.9 1-20.6 2.2-38.1 11.2-59.5 30.9-4.8 4.5-8.9 8.1-9.1 8.1-.6 0 1-54.6 2.1-71.5.6-9.4 1.8-21.6 2.7-27.1 1.7-11.4 1-17-2.9-21.1-2.4-2.7-3.8-1.9-6.8 3.9-2.6 5.1-4.4 13.6-6.6 30.3-1.5 11.7-1.8 21.7-1.8 61.1 0 33.5-.3 47.5-1.1 48.5-3.1 3.8-5.6 10.6-6.1 16.7C-.1 298 .5 303 3 315c4.3 21 4.5 26 2.1 52.2C1.7 404.3 2.5 467.3 7 512.5c.5 5.5 1 11 1 12.2 0 6.1 8.9-.2 11.1-7.8 1.9-6.7 1.7-56.9-.4-81.4-2.9-35.5-4-63.9-2.9-76.8.6-6.5 1.3-12.1 1.6-12.4.3-.3 2.7 1.2 5.3 3.5 14 11.7 41.5 26.9 65.8 36.5 32.2 12.7 56.6 19.6 122 34.7 17.1 4 31.2 7.4 31.4 7.6.2.2-2.1 3.1-5.2 6.3-5.4 5.6-5.7 6.2-5.7 11s.2 5.3 6 11l6 5.9-3.2 5.2c-2.7 4.3-3.3 6.5-3.6 12.3-.4 6.7-.7 7.4-5.5 13.6-10.2 13.3-15.1 27.5-15.1 43.6 0 12.1 2.1 20.9 7.5 32 10.1 21 28.4 36.6 50.9 43.6 10.8 3.4 29.4 3.4 39.5 0 10.7-3.5 16.9-6.8 25.7-13.3 22.9-17.3 34.1-42.9 31.6-71.9-.9-9.7-1.2-10.4-8.2-20.3-8.9-12.6-5.7-23 9.4-30.6 18.3-9.3 41.2-10.6 123.1-7.4 38.5 1.5 71.6 1.4 92.9-.5l7.5-.6-.3-3.5c-.5-6.9-2.4-10-11.3-18.9-4.9-4.9-8.9-9.3-8.9-9.8s6-1.9 13.3-3.2c117-20.5 232.3-43.5 401.2-80 28.1-6.1 51.5-11.1 52-11.1.6 0 1.8 1.2 2.8 2.8 5.8 9 9.1 12.7 12.7 14.3 2.2 1 7.6 4.5 12 7.9 4.4 3.4 10.5 7.3 13.5 8.6 7.3 3.4 20 5.9 24.7 5 5.2-1 9.6-4.9 10.4-9.3.6-3.2.3-3.9-2.1-5.9-3.3-2.6-7.2-3.8-19.1-5.8-17.2-3-30.5-8.8-34.3-15-3.1-4.9-2.7-6.4 1.8-7.6 7.5-2 22.8-5 46.6-9 40.2-6.9 84-16.2 102.1-21.8l8.9-2.8.3-3.7c.2-2.7-.4-5.1-2.2-8.2-4.8-8.1-4.1-8.9 8.9-10 27.3-2.3 42.4-6.9 49.1-14.8l2.5-3-3.1-1.3c-5.9-2.5-17.9-4.4-37.6-5.9-19.3-1.5-24.9-2.1-28.8-3.2-1.8-.5-1.9-1.3-1.3-13.7.4-7.2 1.8-28.9 3.2-48.1 2.8-36.8 3.7-82.3 2.2-98.6l-.9-8.7-6.6-3c-9.4-4.3-17.2-6.2-28.2-6.9-31.2-1.9-66.8 13-100.5 41.9-17.2 14.8-19.2 17.9-27 41.4-6.6 20.1-9.3 25.1-23.2 42.2-5.7 7-14.1 17.4-18.5 23.2-10 12.8-17 20.3-21.6 23.2-2.8 1.7-4.4 2-9.6 1.5-3.4-.3-9.5-1.5-13.6-2.6-8.2-2.3-38.4-6.8-66-10-37.4-4.3-71.7-6.5-118.2-7.7l-27.8-.7-4.9 5c-9 9.1-21.7 13.4-39.5 13.4-10.8-.1-18.8-1.1-25.3-3.2-3.1-1-3.5-1.7-6.4-11.2-1.7-5.6-3.8-11.4-4.7-13l-1.6-2.7H550l.1-43.4v-43.4l15.4-8.8c29.3-16.6 41.1-27.8 47.5-45.3l1.8-4.9-2.8-3.4c-6.8-8.2-23.9-12.7-74.5-19.7C485.6 38.9 477 38 437.2 35c-35.7-2.7-46.4-3.9-80.8-8.5-13.4-1.8-36-3.5-42.9-3.4-2.7.1-8.8.6-13.5 1zm241.9 141.6c.1 26-.9 47.6-2.1 48.8-.2.2-8.2-.1-17.9-.6-10.9-.6-23.2-.6-32.5 0-8.2.5-15.1.7-15.4.4-.9-.9-1.2-20.8-.5-37.9l.7-17 16.1-5.3c21.6-7 40.2-13.8 45.7-16.7 2.5-1.3 4.8-2.3 5.2-2.4.4 0 .7 13.8.7 30.7zM341.7 150c4.3.6 12.8 2 18.8 3.1 6.1 1.2 15.3 2.6 20.5 3.3l9.5 1.2-10 7.5c-12.7 9.6-25.1 17.9-26.6 17.9-2.3 0-11.4-7.9-24.2-21L317 149h8.4c4.7 0 12 .5 16.3 1zm78.3 17c-1.7 4.1-7.9 16.6-13.8 27.7L395.5 215H390c-7.6 0-12.3-2.9-17.9-10.9l-4.5-6.4 4-3.5c4.6-4.1 37.7-32 40.8-34.4 2.5-1.9 10-2.8 10.4-1.3.1.6-1.1 4.4-2.8 8.5zm15.3 22l-.1 24.4-3.3.9c-4 1.1-22 .3-24.3-1-1.4-.7-.1-3.8 8.3-20.5 8.8-17.2 13-26.2 15.5-33.3.7-1.8.9-1.6 2.4 1.5 1.4 3 1.7 7 1.5 28zm-36.2-27.1c-2.8 5.2-21.9 20.5-34.6 27.6l-5 2.8 4.3-4.5c2.4-2.5 7.8-7.1 12-10.2 4.2-3.1 11.3-8.3 15.7-11.5 4.4-3.3 8.1-6 8.3-6 .1-.1-.2.7-.7 1.8zm-59.3 18.6c3.1 2.6 5.7 7.6 5 9.7-.6 1.6-5.2-3.2-8.5-8.6-2.7-4.4-1-4.9 3.5-1.1zm-19.5 2.7c2.3 1.7 8.8 17.8 8.1 20-.3.9-2.3 3.2-4.6 4.9-3.9 3.1-4.1 3.2-5.4 1.4-1.5-2.1-2.1-27.5-.6-27.5.5 0 1.6.6 2.5 1.2zm13.5 6.8c2.4 3.6 2.9 6.4 1 5.8-1.2-.4-5.5-7.3-5.7-9.1-.2-1.8 2.5.1 4.7 3.3zm20.2 8.3c0 2.5-1.7 4.7-3.7 4.7-.8 0-1.3-1.3-1.3-3.5 0-3.1.3-3.5 2.5-3.5 1.9 0 2.5.5 2.5 2.3zm687.5 3.1c-.4 1.7-1 13.8-1.4 26.8-.4 13-1 24-1.3 24.4-1.3 1.3-32.8-2-38.6-4.1-.9-.3.8-2.9 4.7-7.5 3.3-3.8 11.5-14.3 18.2-23.2 14.7-19.7 15.7-20.8 17.6-20.1 1.1.4 1.3 1.4.8 3.7zm-699 3.9c0 2.6-2 2.5-2.3-.2-.3-1.6.1-2.2 1-1.9.7.3 1.3 1.2 1.3 2.1zm21.8.2c2 1.4 3.7 2.7 3.7 2.8 0 .1.4 1.7 1 3.6l.9 3.3-5.6-.4c-5.9-.5-8.3-2.3-8.3-6.2 0-1.7 2.6-5.4 4-5.5.3-.1 2.2 1 4.3 2.4zm-28.3 6.6c.7 1.1 1 2.3.7 2.5-.3.3-2.9.4-5.8.2l-5.4-.3 2.3-2.3c2.8-2.8 6.8-2.9 8.2-.1z"/></svg>